<svg width="150" height="149" viewBox="0 0 150 149" fill="none" xmlns="http://www.w3.org/2000/svg">
<path d="M73.6389 15.5228C73.61 15.4694 73.5939 15.4101 73.592 15.3495C73.5884 15.3005 73.6025 15.2518 73.6317 15.2123C73.6494 15.1939 73.6707 15.1792 73.6943 15.1693C73.7179 15.1593 73.7433 15.1543 73.7689 15.1546C74.0352 15.1486 74.2996 15.1086 74.5558 15.0355C74.6418 15.0224 74.7203 14.9787 74.7767 14.9123C74.8331 14.846 74.8636 14.7615 74.8626 14.6745L74.9384 8.65356H73.6172C73.5192 8.65654 73.4242 8.68776 73.3435 8.74347C73.2628 8.79918 73.1999 8.87701 73.1624 8.9676C73.0357 9.19258 72.9455 9.43626 72.8953 9.68954C72.8421 9.90811 72.8035 10.13 72.7798 10.3537C72.7765 10.3831 72.765 10.4109 72.7464 10.434C72.7279 10.457 72.7031 10.4742 72.6751 10.4837C72.6128 10.5116 72.5449 10.5252 72.4766 10.5234C72.4157 10.5199 72.3565 10.5026 72.3033 10.4728C72.2768 10.4615 72.254 10.443 72.2374 10.4194C72.2208 10.3958 72.2112 10.3681 72.2095 10.3393C72.2347 9.81227 72.2636 9.31052 72.2961 8.83766C72.2849 8.59284 72.3192 8.34807 72.3972 8.11572L79.2014 8.20596C79.2375 8.20596 79.2664 8.4442 79.2881 8.9279C79.3097 9.41159 79.3205 9.90612 79.3314 10.4331C79.3296 10.4619 79.3194 10.4896 79.3021 10.5127C79.2847 10.5358 79.261 10.5533 79.2339 10.5631C79.181 10.5931 79.1214 10.6092 79.0606 10.61C78.992 10.6107 78.9242 10.5959 78.8621 10.5667C78.8349 10.5554 78.8113 10.5371 78.7935 10.5136C78.7757 10.4901 78.7645 10.4624 78.761 10.4331C78.7243 10.0473 78.6481 9.66633 78.5336 9.29608C78.4181 8.93512 78.2304 8.72576 77.9705 8.72576L76.718 8.70771L76.6385 14.707C76.6348 14.7697 76.6474 14.8324 76.6753 14.8887C76.7031 14.9451 76.7452 14.9932 76.7974 15.0282C76.9066 15.1004 77.0295 15.1495 77.1583 15.1726C77.334 15.2026 77.5111 15.2231 77.689 15.234C77.7426 15.2367 77.7948 15.2528 77.8406 15.2809C77.8707 15.3254 77.8835 15.3793 77.8767 15.4325C77.8712 15.4873 77.8539 15.5402 77.8261 15.5877C77.8162 15.6145 77.7985 15.6376 77.7754 15.6544C77.7523 15.6711 77.7247 15.6805 77.6962 15.6816L73.758 15.6311C73.7298 15.6264 73.7036 15.6137 73.6825 15.5945C73.6613 15.5753 73.6462 15.5504 73.6389 15.5228Z" fill="white"/>
<path fill-rule="evenodd" clip-rule="evenodd" d="M61.514 15.27C61.925 15.8033 62.478 16.2099 63.1095 16.4432H63.124C63.8124 16.6766 64.5481 16.7348 65.2647 16.6126C65.9813 16.4903 66.6561 16.1914 67.2281 15.7429C67.7463 15.3136 68.1329 14.7468 68.3435 14.1077C68.5519 13.4511 68.6007 12.7542 68.4859 12.075C68.371 11.3957 68.0957 10.7536 67.683 10.2021C67.2721 9.67841 66.7215 9.2817 66.0947 9.0578C65.4021 8.83591 64.6663 8.78402 63.9494 8.90654C63.2325 9.02906 62.5557 9.32237 61.9761 9.76169C61.4614 10.1808 61.0749 10.7362 60.8607 11.3644C60.641 12.016 60.5889 12.7124 60.7091 13.3894C60.8176 14.0732 61.0942 14.7194 61.514 15.27ZM66.4773 12.4184C66.6685 13.2693 66.6586 14.1529 66.4485 14.9993C66.3732 15.2898 66.2132 15.5512 65.9888 15.7505C65.7645 15.9498 65.486 16.0778 65.1887 16.1183C64.8905 16.1783 64.5812 16.1498 64.299 16.0363C64.0168 15.9228 63.774 15.7292 63.6004 15.4794C63.1123 14.7564 62.8042 13.9272 62.7016 13.0609C62.5111 12.2159 62.5222 11.3379 62.7341 10.4981C62.826 10.2145 62.9938 9.96148 63.2193 9.76654C63.4449 9.57161 63.7195 9.44219 64.0134 9.39234C64.3073 9.34249 64.6092 9.37411 64.8864 9.48377C65.1636 9.59343 65.4055 9.77693 65.5857 10.0144C66.0724 10.7321 66.3783 11.5569 66.4773 12.4184Z" fill="white"/>
<path fill-rule="evenodd" clip-rule="evenodd" d="M52.0461 20.1941C51.9983 20.1559 51.961 20.1062 51.9378 20.0497C51.9221 20.0028 51.9221 19.9522 51.9378 19.9053C51.948 19.882 51.9629 19.861 51.9815 19.8436C52.0001 19.8263 52.0221 19.8129 52.0461 19.8042C52.4539 19.6165 52.6236 19.4433 52.5586 19.252L50.5697 13.888C50.5528 13.8328 50.5249 13.7817 50.4877 13.7376C50.4505 13.6936 50.4047 13.6575 50.3531 13.6317C50.2649 13.5922 50.1673 13.5784 50.0716 13.592C49.9992 13.592 49.9053 13.6156 49.79 13.6446C49.7558 13.6532 49.7197 13.6623 49.6817 13.6714C49.6302 13.6887 49.5744 13.6887 49.5229 13.6714C49.4916 13.6714 49.4627 13.6281 49.4363 13.5415C49.421 13.4823 49.421 13.4202 49.4363 13.361C49.4365 13.3328 49.4447 13.3052 49.4601 13.2816C49.4754 13.2579 49.4972 13.2391 49.5229 13.2274L50.9668 12.686C51.2447 12.5813 51.6201 12.4333 52.0894 12.2384L52.9232 11.9027C54.7497 11.2289 55.9204 11.5826 56.4354 12.9639C56.6001 13.3774 56.6463 13.8287 56.569 14.267C56.4703 14.7065 56.2383 15.1049 55.9048 15.4077C55.4586 15.8113 54.9339 16.1186 54.3635 16.3101L53.4574 16.6458L54.1469 18.4759C54.1716 18.537 54.2126 18.5901 54.2654 18.6296C54.3183 18.6691 54.3809 18.6933 54.4465 18.6997C54.5995 18.7245 54.7555 18.7245 54.9085 18.6997C55.0637 18.6636 55.2695 18.613 55.4752 18.5481C55.5268 18.5307 55.5825 18.5307 55.6341 18.5481C55.6665 18.5481 55.6954 18.6022 55.7207 18.6744C55.736 18.7336 55.736 18.7957 55.7207 18.8549C55.7195 18.8833 55.7109 18.911 55.6957 18.9351C55.6805 18.9591 55.6593 18.9788 55.6341 18.9921L52.1977 20.2374C52.1709 20.2456 52.1423 20.2459 52.1154 20.2383C52.0885 20.2306 52.0644 20.2152 52.0461 20.1941ZM54.7244 15.2019C54.8107 14.9687 54.8485 14.7204 54.8355 14.4722C54.8224 14.2239 54.7589 13.9809 54.6486 13.758C54.5332 13.3989 54.3493 13.0655 54.1072 12.7762C53.9441 12.5761 53.71 12.4467 53.4538 12.4152C53.1586 12.4022 52.8642 12.454 52.5911 12.5668L52.0461 12.769L53.2806 16.1657L53.8256 15.9635C54.0182 15.9021 54.1968 15.8032 54.351 15.6724C54.5053 15.5417 54.6322 15.3818 54.7244 15.2019Z" fill="white"/>
<path d="M40.5203 18.1111C40.4878 18.071 40.4437 18.042 40.394 18.0281C40.3678 18.0178 40.3391 18.0154 40.3115 18.0211C40.2839 18.0269 40.2586 18.0406 40.2388 18.0606L38.4592 19.342C38.4373 19.3572 38.4197 19.3778 38.4083 19.4019C38.3969 19.426 38.392 19.4526 38.3942 19.4792C38.3954 19.5309 38.4117 19.5811 38.4412 19.6236C38.4669 19.6657 38.5064 19.6976 38.5531 19.7138C38.578 19.7194 38.6039 19.7194 38.6289 19.7138C38.6539 19.7081 38.6773 19.6971 38.6974 19.6813C38.87 19.5731 39.0497 19.4766 39.2353 19.3926C39.358 19.342 39.4374 19.342 39.4735 19.3926C39.4925 19.4296 39.5036 19.4701 39.506 19.5117L39.9572 23.2838L36.6363 21.6811L36.5425 21.6378C36.5017 21.6251 36.4646 21.6028 36.4342 21.5728C36.4211 21.5517 36.4141 21.5273 36.4141 21.5024C36.4141 21.4775 36.4211 21.4532 36.4342 21.432C36.4736 21.3633 36.5264 21.3032 36.5894 21.2551L36.9756 20.9339L37.0875 20.8472C37.1083 20.8327 37.1258 20.8139 37.1389 20.7922C37.152 20.7704 37.1603 20.7461 37.1633 20.7209C37.1633 20.6717 37.1453 20.6242 37.1128 20.5874C37.0825 20.545 37.0395 20.5134 36.9901 20.4971C36.9661 20.4864 36.9396 20.4824 36.9136 20.4856C36.8875 20.4887 36.8628 20.499 36.8421 20.5152L33.8172 22.681C33.7956 22.6963 33.7786 22.7171 33.7678 22.7412C33.757 22.7653 33.7529 22.7919 33.7558 22.8181C33.7534 22.8698 33.7687 22.9207 33.7991 22.9625C33.8424 23.0239 33.8821 23.0636 33.9182 23.0636C33.9718 23.0604 34.0233 23.0416 34.0662 23.0094C34.1854 22.9445 34.2792 22.8939 34.355 22.8614C34.4447 22.8261 34.5402 22.8078 34.6366 22.8073C34.7682 22.8075 34.8984 22.8345 35.0192 22.8867L39.1775 24.641L40.329 26.2401C40.3667 26.2844 40.3873 26.3407 40.3873 26.3989C40.3873 26.4571 40.3667 26.5134 40.329 26.5577C40.2253 26.6884 40.1038 26.8038 39.968 26.9007L39.8164 27.0234C39.7708 27.062 39.738 27.1136 39.7226 27.1714C39.7149 27.1957 39.7132 27.2215 39.7176 27.2467C39.722 27.2718 39.7324 27.2955 39.7479 27.3158C39.7833 27.3656 39.8321 27.4044 39.8886 27.4277C39.9131 27.4427 39.9412 27.4506 39.9698 27.4506C39.9985 27.4506 40.0266 27.4427 40.0511 27.4277L43.029 25.2619C43.0518 25.2447 43.0689 25.221 43.0779 25.1939C43.0869 25.1669 43.0875 25.1377 43.0796 25.1103C43.0738 25.0494 43.0527 24.9911 43.0182 24.9406C42.9749 24.8829 42.9316 24.854 42.8883 24.854C42.824 24.8643 42.7626 24.8876 42.7078 24.9226C42.6993 24.9282 42.6894 24.9345 42.6782 24.9418C42.6462 24.9623 42.6033 24.9898 42.5526 25.0272C42.4499 25.0993 42.3426 25.1644 42.2313 25.2222C42.1502 25.2644 42.059 25.2831 41.9678 25.2763C41.9196 25.2709 41.8734 25.2543 41.8327 25.228C41.792 25.2017 41.7579 25.1664 41.7332 25.1247L40.5889 23.5364L40.1016 19.2049C40.0847 19.0843 40.092 18.9616 40.1233 18.8439C40.1481 18.7554 40.1911 18.673 40.2496 18.602C40.3037 18.5443 40.3795 18.4721 40.4806 18.3818C40.5245 18.3499 40.5583 18.306 40.5781 18.2555C40.5853 18.223 40.5636 18.1761 40.5203 18.1111Z" fill="white"/>
<path fill-rule="evenodd" clip-rule="evenodd" d="M36.0986 30.0267C36.1311 30.0267 36.1744 30.0519 36.2322 30.1025C36.2736 30.1481 36.3044 30.2023 36.3224 30.2613C36.3345 30.287 36.3388 30.3157 36.335 30.3439C36.3311 30.372 36.3193 30.3985 36.3008 30.4201L34.0231 32.7917C34.0022 32.8113 33.9761 32.8245 33.948 32.8297C33.9198 32.8348 33.8907 32.8316 33.8643 32.8205C33.8052 32.8067 33.7505 32.7781 33.7054 32.7375C33.6683 32.7053 33.6418 32.6625 33.6296 32.6148C33.6302 32.5629 33.6494 32.5129 33.6838 32.474L33.8245 32.3152C33.9087 32.2284 33.9848 32.1342 34.052 32.0336C34.0705 32.0142 34.0808 31.9883 34.0808 31.9614C34.0808 31.9346 34.0705 31.9087 34.052 31.8892C34.0314 31.8688 34.0068 31.8528 33.9798 31.8423L32.2038 31.0554L30.4459 32.8602L31.3122 34.6001C31.3216 34.6218 31.335 34.6414 31.3519 34.6579C31.3952 34.7012 31.4566 34.6976 31.5324 34.6579C31.6442 34.5723 31.7492 34.4782 31.8464 34.3763L32.0089 34.2211C32.0267 34.2028 32.0481 34.1882 32.0716 34.1783C32.0952 34.1684 32.1205 34.1633 32.146 34.1633C32.1938 34.1708 32.2374 34.1951 32.2688 34.2319C32.3115 34.2752 32.3425 34.3286 32.359 34.3871C32.3749 34.4113 32.3833 34.4395 32.3833 34.4684C32.3833 34.4972 32.3749 34.5254 32.359 34.5496L30.7852 36.1631C30.7659 36.1829 30.7416 36.1971 30.7149 36.2041C30.6882 36.2111 30.6601 36.2106 30.6336 36.2028C30.5697 36.1853 30.5113 36.1517 30.4639 36.1053C30.4098 36.0512 30.3809 36.0079 30.3809 35.9754C30.3903 35.9205 30.4168 35.8699 30.4567 35.831C30.4849 35.7957 30.5151 35.762 30.547 35.7299C30.6093 35.6612 30.666 35.5876 30.7166 35.5097C30.7603 35.439 30.7852 35.3582 30.7888 35.2751C30.7935 35.1674 30.7698 35.0604 30.7202 34.9647L27.6123 28.4673L28.4678 27.5757L35.0735 30.4345C35.1723 30.4816 35.2823 30.5004 35.3911 30.4887C35.4776 30.4749 35.5594 30.4402 35.6294 30.3876C35.7061 30.3278 35.7796 30.264 35.8496 30.1963C35.8828 30.1575 35.919 30.1212 35.9579 30.088C36.0192 30.0519 36.0625 30.0267 36.0986 30.0267ZM28.6808 29.2722L30.2185 32.456L31.7598 30.8497L28.6808 29.2722Z" fill="white"/>
<path d="M25.2078 43.6855C25.2592 43.7203 25.3191 43.7402 25.381 43.7433C25.4105 43.754 25.4426 43.7549 25.4725 43.7458C25.5025 43.7366 25.5286 43.718 25.5471 43.6928L28.9691 38.5598L27.2111 37.0113C27.1884 36.9937 27.1605 36.9842 27.1317 36.9842C27.103 36.9842 27.0751 36.9937 27.0523 37.0113C26.9893 37.0501 26.9352 37.1017 26.8935 37.1629C26.848 37.2354 26.8139 37.3146 26.7924 37.3975C26.7754 37.4297 26.7664 37.4657 26.7664 37.5022C26.7664 37.5387 26.7754 37.5746 26.7924 37.6068C26.9762 37.8411 27.1426 38.0884 27.2906 38.3468C27.4282 38.5863 27.5349 38.8422 27.6082 39.1085C27.6413 39.1979 27.6552 39.2933 27.649 39.3885C27.6428 39.4836 27.6166 39.5764 27.5721 39.6608L26.7672 40.8664C26.707 40.9723 26.6165 41.0578 26.5073 41.1118C26.4494 41.1282 26.3884 41.1298 26.3298 41.1165C26.2712 41.1033 26.2168 41.0756 26.1716 41.036L21.5151 37.9173C21.4438 37.873 21.3885 37.8071 21.3573 37.7292C21.3262 37.6512 21.3207 37.5654 21.3418 37.4841C21.4028 37.2348 21.5133 37.0004 21.6667 36.7947C21.7317 36.6972 21.71 36.6142 21.6017 36.542C21.5488 36.5112 21.4896 36.4927 21.4285 36.4879C21.4007 36.4813 21.3716 36.4829 21.3447 36.4925C21.3178 36.5021 21.2942 36.5193 21.2769 36.542L19.2663 39.5561C19.2512 39.5798 19.2432 39.6074 19.2432 39.6355C19.2432 39.6636 19.2512 39.6912 19.2663 39.7149C19.2953 39.7699 19.336 39.8179 19.3854 39.8557C19.4252 39.8905 19.4769 39.9086 19.5298 39.9062C19.5805 39.8866 19.6235 39.8512 19.6525 39.8051C19.7347 39.6926 19.8252 39.5865 19.9232 39.4875C19.9994 39.4132 20.0942 39.3609 20.1976 39.3359C20.2551 39.3271 20.3138 39.33 20.3702 39.3442C20.4266 39.3585 20.4796 39.3839 20.526 39.4189L25.2403 42.5629C25.3305 42.6387 25.3594 42.7506 25.3305 42.9239C25.297 43.1029 25.2335 43.275 25.1428 43.4329C25.1145 43.4766 25.1041 43.5296 25.1139 43.5809C25.1334 43.6248 25.1662 43.6614 25.2078 43.6855Z" fill="white"/>
<path d="M19.8984 52.0022C20.5702 51.8802 21.188 51.5537 21.6671 51.0673C22.1602 50.5516 22.5542 49.9496 22.8294 49.2913C22.9823 48.9458 23.0891 48.5817 23.1471 48.2084C23.2011 47.9011 23.2205 47.5887 23.2049 47.2771C23.1832 47.0172 23.1507 46.8728 23.1002 46.8439L21.6888 46.0643C21.6431 46.0426 21.5853 46.0679 21.5155 46.1401C21.458 46.1967 21.4105 46.2626 21.3748 46.335C21.3427 46.383 21.3308 46.4417 21.3416 46.4984C21.3524 46.5551 21.3851 46.6053 21.4325 46.6382C21.7113 46.8201 21.9557 47.0498 22.1544 47.3168C22.3409 47.5639 22.4648 47.8525 22.5154 48.1579C22.5612 48.4723 22.5148 48.7933 22.3819 49.0819C22.2264 49.4583 21.9567 49.7764 21.6109 49.9914C21.2651 50.2063 20.8606 50.3074 20.4543 50.2804C19.7344 50.254 19.0283 50.0757 18.3823 49.757C17.6901 49.4907 17.0562 49.0922 16.5161 48.5838C16.1942 48.2904 15.9827 47.8954 15.9169 47.4648C15.8925 47.1166 15.9558 46.7679 16.101 46.4505C16.1751 46.2325 16.2972 46.034 16.4585 45.8697C16.6197 45.7053 16.8158 45.5794 17.0323 45.5012C17.4791 45.38 17.95 45.38 18.3968 45.5012C18.4473 45.512 18.5015 45.4867 18.5592 45.4181C18.617 45.3496 18.6644 45.273 18.7 45.1907L18.7253 45.1221C18.7501 45.0466 18.7599 44.9669 18.7541 44.8875C18.7505 44.7901 18.7216 44.7179 18.6711 44.7179L17.0865 44.1187C17.0639 44.1628 17.036 44.204 17.0034 44.2414C16.9594 44.2922 16.9124 44.3404 16.8627 44.3858C16.6436 44.6097 16.4432 44.8511 16.2635 45.1077C16.0212 45.4619 15.8167 45.8406 15.6534 46.2375C15.383 46.8579 15.2453 47.528 15.2491 48.2048C15.2431 48.9451 15.4617 49.6699 15.8761 50.2834C16.2904 50.8969 16.8811 51.3703 17.5702 51.6412C18.2907 51.9979 19.1037 52.1239 19.8984 52.0022Z" fill="white"/>
<path d="M89.2364 17.2956C89.406 17.4166 89.582 17.5287 89.7634 17.6313C90.0315 17.778 90.3163 17.8919 90.6117 17.9706C91.0704 18.1055 91.5518 18.1461 92.0266 18.0897C92.4546 18.0451 92.8625 17.8855 93.207 17.6277C93.5395 17.3795 93.7775 17.0256 93.882 16.6242C93.9907 16.2695 93.9792 15.8888 93.8495 15.5413C93.7202 15.1996 93.5321 14.8832 93.2937 14.6064C92.9939 14.2713 92.6745 13.9543 92.3371 13.657C92.005 13.3538 91.7343 13.0939 91.5285 12.8701C91.3282 12.6581 91.1647 12.4141 91.0448 12.1482C90.9309 11.9069 90.9078 11.6326 90.9798 11.3757C91.0084 11.2393 91.0746 11.1136 91.171 11.0128C91.2673 10.912 91.3899 10.8401 91.5249 10.8054C91.8376 10.7317 92.1645 10.7441 92.4706 10.8415C92.8715 10.9277 93.2256 11.1608 93.4633 11.4948C93.6739 11.847 93.7976 12.2441 93.8243 12.6535C93.8441 12.8054 93.8572 12.9172 93.8638 12.9889C93.847 12.966 93.8336 12.9405 93.8243 12.9134C93.8633 13.1137 93.8776 13.1388 93.8638 12.9889C93.8768 13.0066 93.8919 13.0229 93.9088 13.0373C93.9475 13.0703 93.9944 13.0923 94.0445 13.1011C94.1259 13.1316 94.2157 13.1316 94.2971 13.1011C94.3366 13.0818 94.3709 13.0534 94.3972 13.0183C94.4236 12.9832 94.4412 12.9423 94.4487 12.899C94.4832 12.7525 94.5097 12.6043 94.5282 12.455L94.5358 12.4153C94.5526 12.3278 94.5821 12.1741 94.622 11.9497C94.6689 11.6862 94.7159 11.4696 94.7592 11.2963C94.7736 11.2458 94.7484 11.188 94.6834 11.1303C94.6183 11.0685 94.5389 11.0238 94.4524 11.0003C94.4028 10.9861 94.3503 10.9861 94.3008 11.0003C94.269 11.0109 94.2386 11.0254 94.2105 11.0436C94.1795 11.0628 94.1452 11.0763 94.1094 11.0833C94.0704 11.0933 94.0294 11.0933 93.9903 11.0833C93.9194 11.062 93.8515 11.0316 93.7882 10.9931C93.7418 10.9671 93.6972 10.9382 93.6546 10.9065C93.5001 10.8015 93.3385 10.7074 93.1709 10.6249C92.9633 10.5269 92.747 10.4483 92.5248 10.3903C92.0678 10.2527 91.5876 10.2097 91.1134 10.2639C90.707 10.3081 90.3208 10.4643 89.998 10.7152C89.693 10.9615 89.4753 11.2994 89.3771 11.6789C89.2666 12.0241 89.2666 12.3951 89.3771 12.7402C89.4786 13.0555 89.6377 13.3493 89.8464 13.6065C90.0121 13.8013 90.2387 14.0264 90.5091 14.2953L90.6362 14.4217L90.7127 14.4981L90.9871 14.758C91.2396 14.9864 91.4806 15.2274 91.709 15.4799C91.8779 15.6786 92.0122 15.9044 92.1061 16.1477C92.1996 16.3953 92.2085 16.667 92.1313 16.9202C92.0856 17.1013 91.9816 17.2624 91.8353 17.3786C91.6921 17.4882 91.5205 17.5546 91.3408 17.5699C91.1456 17.5906 90.9483 17.5734 90.7597 17.5194C90.3459 17.4025 89.9716 17.1754 89.6768 16.8624C89.3825 16.5532 89.1714 16.1744 89.0631 15.7615C89.0201 15.5956 88.9899 15.4266 88.9729 15.2561V14.7941C88.9739 14.7226 88.9493 14.6532 88.9037 14.5983C88.858 14.5433 88.7942 14.5065 88.7238 14.4945C88.5289 14.4403 88.3953 14.5306 88.3303 14.7688C88.3087 14.8482 88.2762 14.9962 88.2365 15.2092C88.2331 15.2329 88.2241 15.2734 88.2107 15.334C88.1956 15.4023 88.1747 15.4963 88.1499 15.6207C88.1029 15.8553 88.0452 16.0863 87.9802 16.3138L87.9261 16.5159L87.9091 16.57C87.8905 16.6299 87.8725 16.6877 87.8503 16.7433C87.8383 16.7752 87.834 16.8095 87.8378 16.8434C87.8415 16.8772 87.8532 16.9097 87.8719 16.9382C87.9168 17.0043 87.9852 17.0508 88.0632 17.0682C88.1284 17.0845 88.1966 17.0845 88.2618 17.0682C88.3455 17.0456 88.4248 17.009 88.4964 16.9599C88.533 16.936 88.5716 16.9154 88.6119 16.8985C88.6444 16.8857 88.6805 16.8857 88.713 16.8985C88.7445 16.9079 88.7731 16.9253 88.796 16.9491L88.8537 16.996C88.9068 17.047 88.9635 17.0941 89.0234 17.1368L89.2364 17.2956Z" fill="white"/>
<path d="M97.6038 20.147C97.5988 20.0854 97.6087 20.0235 97.6327 19.9666C97.651 19.921 97.684 19.8829 97.7265 19.8583C97.7739 19.8388 97.8271 19.8388 97.8745 19.8583C98.1188 19.9643 98.3762 20.0371 98.6398 20.0748C98.7242 20.096 98.8133 20.0875 98.8922 20.0507C98.9711 20.0139 99.0349 19.951 99.0729 19.8727L101.65 14.4402L100.455 13.8771C100.365 13.8398 100.266 13.8289 100.169 13.8455C100.073 13.8621 99.9832 13.9055 99.9104 13.9709C99.7027 14.1204 99.5189 14.3005 99.3653 14.5051C99.227 14.6819 99.1003 14.8676 98.9863 15.061C98.9717 15.0867 98.9499 15.1076 98.9236 15.121C98.8973 15.1345 98.8677 15.14 98.8383 15.1368C98.7693 15.1372 98.7012 15.1211 98.6398 15.0899C98.5846 15.0625 98.5374 15.0215 98.5026 14.9708C98.4832 14.9505 98.4702 14.925 98.4651 14.8975C98.4599 14.8699 98.4629 14.8414 98.4737 14.8156C98.7156 14.3427 98.9502 13.8987 99.174 13.4836C99.3978 13.0685 99.535 12.8627 99.5638 12.8772L105.7 15.7866C105.733 15.7866 105.661 16.0284 105.48 16.4688C105.439 16.5699 105.397 16.6721 105.355 16.7755C105.215 17.1226 105.069 17.4831 104.899 17.8585C104.884 17.883 104.863 17.903 104.837 17.9164C104.812 17.9297 104.783 17.9359 104.755 17.9343C104.694 17.939 104.633 17.9291 104.578 17.9054C104.515 17.8771 104.46 17.8352 104.415 17.7827C104.395 17.7607 104.381 17.7337 104.375 17.7045C104.369 17.6754 104.37 17.6451 104.379 17.6167C104.504 17.2509 104.592 16.8737 104.643 16.4904C104.697 16.097 104.603 15.8479 104.368 15.736L103.235 15.2018L100.672 20.6163C100.64 20.6712 100.624 20.7334 100.624 20.7968C100.624 20.8601 100.64 20.9224 100.672 20.9773C100.745 21.0911 100.841 21.1882 100.954 21.2624C101.099 21.3626 101.25 21.4553 101.405 21.5404C101.455 21.5627 101.498 21.5991 101.527 21.6451C101.535 21.6978 101.523 21.7515 101.495 21.7967C101.468 21.8518 101.427 21.899 101.376 21.9338C101.355 21.9539 101.329 21.9674 101.301 21.9725C101.273 21.9777 101.243 21.9743 101.217 21.9627L97.6796 20.2806C97.6559 20.2674 97.6364 20.248 97.623 20.2244C97.6096 20.2009 97.603 20.1741 97.6038 20.147Z" fill="white"/>
<path d="M110.097 27.3734C110.573 27.4356 111.057 27.3538 111.486 27.1388C111.961 26.9007 112.369 26.5484 112.674 26.1136L114.894 23.0598C114.94 22.9954 115.002 22.9447 115.075 22.9135C115.147 22.8823 115.227 22.8717 115.305 22.883C115.528 22.9192 115.738 23.0084 115.919 23.1429C115.939 23.1575 115.962 23.1679 115.986 23.1735C116.01 23.1791 116.035 23.1797 116.06 23.1754C116.108 23.1605 116.149 23.1284 116.175 23.0851C116.21 23.0347 116.231 22.9763 116.237 22.9155C116.244 22.8878 116.243 22.8586 116.235 22.8312C116.227 22.8038 116.211 22.7793 116.19 22.7602L114.186 21.3164C114.163 21.3013 114.135 21.2933 114.107 21.2933C114.079 21.2933 114.051 21.3013 114.028 21.3164C113.971 21.3418 113.922 21.3802 113.883 21.4283C113.846 21.4674 113.826 21.519 113.825 21.5727C113.846 21.6226 113.88 21.6662 113.923 21.699C114.079 21.8487 114.22 22.0144 114.342 22.1935C114.393 22.251 114.424 22.3234 114.431 22.4C114.438 22.4766 114.421 22.5535 114.381 22.6195L112.118 25.7454C111.888 26.0711 111.594 26.3473 111.255 26.5576C110.923 26.7557 110.541 26.8523 110.154 26.8356C109.717 26.8037 109.299 26.6429 108.952 26.3735C108.668 26.1836 108.442 25.9188 108.299 25.6083C108.188 25.299 108.188 24.9609 108.299 24.6517C108.454 24.1971 108.683 23.7713 108.978 23.3919L111.284 20.2118C111.346 20.1252 111.457 20.1071 111.616 20.1613C111.803 20.2255 111.981 20.3116 112.147 20.4176C112.167 20.433 112.189 20.4439 112.214 20.4495C112.238 20.4552 112.263 20.4553 112.288 20.4501C112.336 20.4352 112.377 20.4031 112.403 20.3598C112.438 20.3094 112.459 20.251 112.465 20.1902C112.472 20.163 112.471 20.1344 112.463 20.1075C112.455 20.0807 112.439 20.0568 112.418 20.0386L109.7 18.0713C109.675 18.0563 109.647 18.0483 109.618 18.0483C109.59 18.0483 109.562 18.0563 109.537 18.0713C109.482 18.0961 109.433 18.1346 109.396 18.1832C109.339 18.2445 109.339 18.2915 109.339 18.324C109.357 18.375 109.391 18.4191 109.436 18.4503C109.533 18.534 109.624 18.6232 109.71 18.7174C109.779 18.7918 109.824 18.8847 109.84 18.9845C109.847 19.0419 109.842 19.1001 109.826 19.1555C109.809 19.2108 109.781 19.262 109.743 19.3058L107.613 22.2441C106.968 23.1296 106.759 23.9442 106.985 24.6878C107.3 25.5417 107.886 26.2693 108.653 26.7598C109.075 27.0825 109.571 27.2935 110.097 27.3734Z" fill="white"/>
<path fill-rule="evenodd" clip-rule="evenodd" d="M114.475 31.1093C114.493 31.0504 114.525 30.997 114.569 30.9541C114.603 30.9193 114.647 30.8964 114.695 30.8891C114.721 30.8891 114.746 30.8946 114.769 30.9052C114.792 30.9158 114.812 30.9312 114.829 30.9504C114.964 31.0756 115.113 31.1847 115.273 31.2753C115.413 31.3511 115.522 31.3547 115.598 31.2753L119.796 27.3877C119.841 27.3513 119.878 27.3052 119.904 27.2528C119.929 27.2003 119.943 27.1428 119.944 27.0845C119.941 26.9827 119.912 26.8834 119.861 26.7957C119.789 26.671 119.711 26.5504 119.626 26.4348C119.589 26.3944 119.564 26.3443 119.554 26.2904C119.554 26.2567 119.583 26.2134 119.64 26.1604C119.687 26.1212 119.743 26.094 119.803 26.081C119.829 26.0695 119.858 26.066 119.887 26.0712C119.915 26.0763 119.941 26.0898 119.962 26.1099L122.463 28.8099C123.028 29.403 123.442 30.1237 123.669 30.9107C123.855 31.5533 123.855 32.2354 123.669 32.878C123.496 33.4749 123.162 34.013 122.705 34.4338C122.159 34.9763 121.458 35.3347 120.698 35.4589C120.026 35.5636 119.338 35.4864 118.706 35.2351C118.132 35.0141 117.614 34.669 117.189 34.2244L114.468 31.2825C114.449 31.257 114.44 31.2261 114.442 31.1947C114.443 31.1633 114.455 31.1332 114.475 31.1093ZM116.854 32.878C116.979 33.1396 117.15 33.3768 117.359 33.5783C117.63 33.8889 117.967 34.1355 118.345 34.3002C118.742 34.4183 119.17 34.3782 119.539 34.1883C120.197 33.8627 120.797 33.431 121.315 32.9105C121.814 32.4856 122.226 31.9683 122.528 31.3872C122.721 31.015 122.775 30.5863 122.68 30.178C122.56 29.7875 122.347 29.4321 122.059 29.142L121.337 28.3768L116.872 32.5531C116.81 32.6109 116.81 32.7264 116.854 32.8924V32.878Z" fill="white"/>
<path d="M122.019 39.6935C121.969 39.7288 121.928 39.7759 121.9 39.8306C121.883 39.8544 121.873 39.8829 121.871 39.9125C121.87 39.9421 121.878 39.9714 121.893 39.9967L123.748 42.7978C123.766 42.8205 123.789 42.8376 123.816 42.8473C123.843 42.8569 123.872 42.8585 123.9 42.8519C123.96 42.8483 124.019 42.8297 124.07 42.7978C124.135 42.7544 124.178 42.7183 124.178 42.6823C124.176 42.6284 124.16 42.576 124.131 42.5306C124.066 42.4138 124.009 42.2933 123.958 42.1697C123.918 42.0702 123.904 41.962 123.918 41.8556C123.927 41.7974 123.949 41.7421 123.983 41.6939C124.017 41.6457 124.061 41.6059 124.113 41.5777L128.878 38.4156C129.047 38.3109 129.282 38.4626 129.6 38.8668C129.613 38.8886 129.631 38.9072 129.652 38.9215C129.673 38.9358 129.697 38.9455 129.722 38.9499C129.771 38.9512 129.818 38.9359 129.856 38.9065C129.907 38.8707 129.948 38.8222 129.975 38.7658C129.991 38.7424 130 38.7147 130 38.6864C130 38.658 129.991 38.6303 129.975 38.6069L128.123 35.8058C128.105 35.7838 128.082 35.7671 128.055 35.7576C128.028 35.748 128 35.746 127.972 35.7517C127.91 35.7547 127.851 35.7733 127.799 35.8058C127.734 35.8492 127.694 35.8853 127.694 35.9214C127.692 35.9757 127.709 36.0291 127.741 36.073C127.805 36.1898 127.863 36.3103 127.914 36.4339C127.951 36.5341 127.964 36.6419 127.95 36.748C127.943 36.8067 127.921 36.8628 127.887 36.9113C127.853 36.9597 127.808 36.9991 127.755 37.0259L122.983 40.1808C122.897 40.2385 122.788 40.2205 122.662 40.123C122.519 40.0082 122.39 39.876 122.279 39.7295C122.249 39.6871 122.204 39.6575 122.153 39.6465C122.104 39.6456 122.057 39.6622 122.019 39.6935Z" fill="white"/>
<path fill-rule="evenodd" clip-rule="evenodd" d="M126.762 47.4178C126.826 46.751 127.077 46.1156 127.484 45.5841C127.91 45.0373 128.466 44.6055 129.102 44.328C129.725 44.0434 130.41 43.9193 131.094 43.967C131.758 44.0131 132.394 44.2486 132.928 44.6456C133.498 45.0931 133.953 45.6709 134.253 46.3303C134.554 46.9898 134.693 47.7118 134.657 48.4358C134.594 49.0996 134.343 49.7318 133.935 50.2587C133.506 50.7967 132.954 51.2248 132.326 51.5073C131.699 51.7897 131.013 51.9186 130.325 51.883C129.653 51.8376 129.007 51.6064 128.459 51.2152C127.881 50.7729 127.423 50.194 127.124 49.5306C126.825 48.8671 126.696 48.1399 126.748 47.4142L126.762 47.4178ZM129 50.3056C129.872 50.2937 130.73 50.08 131.506 49.6811C132.312 49.3667 133.033 48.8642 133.606 48.2156C133.801 47.985 133.924 47.7027 133.96 47.4033C133.997 47.104 133.945 46.8004 133.812 46.5299C133.699 46.2525 133.507 46.0143 133.26 45.8449C133.013 45.6755 132.722 45.5823 132.422 45.5769C130.682 45.6794 129.042 46.4241 127.82 47.6669C127.622 47.8972 127.495 48.1807 127.456 48.4822C127.417 48.7837 127.467 49.0901 127.6 49.3635C127.716 49.6389 127.911 49.874 128.16 50.039C128.409 50.2041 128.702 50.2918 129 50.2911V50.3056Z" fill="white"/>
<path fill-rule="evenodd" clip-rule="evenodd" d="M30.5898 117.969C30.5652 117.998 30.5479 118.033 30.5392 118.07C30.5299 118.087 30.5259 118.106 30.5278 118.124C30.5298 118.143 30.5375 118.161 30.5501 118.175L32.1203 119.619C32.3948 119.869 32.7253 120.05 33.0841 120.146C33.4765 120.251 33.8905 120.243 34.2789 120.124C34.6909 119.984 35.0653 119.75 35.3732 119.443C35.6811 119.135 35.9142 118.76 36.0548 118.348C36.1718 117.976 36.1718 117.576 36.0548 117.204C35.8887 116.741 35.6051 116.329 35.2318 116.009L33.7555 114.659C33.7402 114.65 33.7227 114.645 33.7049 114.645C33.6871 114.645 33.6696 114.65 33.6544 114.659C33.617 114.67 33.5833 114.692 33.5569 114.721C33.51 114.757 33.51 114.785 33.51 114.804C33.5175 114.838 33.5351 114.869 33.5605 114.894C33.6363 114.98 33.6905 115.049 33.7266 115.1C33.7641 115.153 33.7866 115.215 33.7916 115.28C33.7941 115.316 33.7886 115.352 33.7755 115.386C33.7624 115.42 33.742 115.45 33.7158 115.475L31.2576 118.139C31.2278 118.161 31.1917 118.173 31.1547 118.173C31.1177 118.173 31.0816 118.161 31.0518 118.139C30.9461 118.088 30.8467 118.025 30.7558 117.951C30.7308 117.93 30.6987 117.918 30.6656 117.919C30.6358 117.928 30.6094 117.945 30.5898 117.969ZM32.1816 119.211C32.0365 119.095 31.9141 118.953 31.8207 118.792V118.785C31.7774 118.684 31.7738 118.612 31.799 118.572L34.4233 115.735L34.907 116.182C35.2461 116.477 35.4656 116.885 35.5242 117.33C35.5747 117.763 35.3473 118.254 34.842 118.803C34.5482 119.161 34.1782 119.448 33.7591 119.644C33.4885 119.762 33.184 119.776 32.9036 119.684C32.6348 119.574 32.3897 119.413 32.1816 119.211Z" fill="white"/>
<path d="M35.9072 122.546C35.94 122.542 35.9732 122.55 36.001 122.568C36.0988 122.633 36.2043 122.685 36.3151 122.723C36.4138 122.754 36.4823 122.743 36.5208 122.691L38.6866 119.781C38.7104 119.754 38.7279 119.721 38.7379 119.686C38.7479 119.652 38.7501 119.615 38.7444 119.579C38.7312 119.516 38.7013 119.457 38.6578 119.409C38.6006 119.342 38.5391 119.278 38.4737 119.218C38.4446 119.2 38.4229 119.171 38.4123 119.139C38.4126 119.105 38.4255 119.073 38.4484 119.048C38.4734 119.017 38.5056 118.992 38.5423 118.976C38.5573 118.967 38.5749 118.961 38.5928 118.961C38.6107 118.961 38.6282 118.967 38.6433 118.976L41.2784 120.933L40.7225 121.875C40.714 121.888 40.7022 121.899 40.6883 121.907C40.6745 121.914 40.6589 121.918 40.6431 121.918C40.6111 121.919 40.5796 121.91 40.5528 121.893C40.5186 121.868 40.4903 121.836 40.4698 121.799C40.4473 121.762 40.4395 121.718 40.4482 121.676L40.4879 121.424C40.5124 121.304 40.5293 121.184 40.5384 121.063C40.5467 120.986 40.5356 120.909 40.5059 120.839C40.4727 120.763 40.4189 120.698 40.3507 120.651L39.4338 119.972L38.3509 121.416L38.979 121.882C39.0097 121.896 39.0429 121.903 39.0765 121.903C39.1101 121.903 39.1433 121.896 39.1739 121.882C39.2605 121.851 39.3429 121.81 39.4194 121.759C39.4817 121.721 39.5398 121.676 39.5927 121.626C39.6432 121.575 39.7046 121.575 39.7804 121.626C39.807 121.646 39.8271 121.674 39.8381 121.705C39.846 121.719 39.8502 121.736 39.8502 121.752L39.85 121.757C39.8499 121.76 39.8496 121.763 39.8492 121.766C39.8475 121.777 39.8438 121.789 39.8381 121.799L38.9538 122.987C38.9445 123.001 38.9314 123.012 38.9161 123.019C38.9008 123.026 38.8838 123.028 38.8671 123.026C38.8336 123.027 38.8008 123.016 38.7733 122.997C38.7424 122.975 38.7176 122.945 38.7011 122.911C38.6922 122.895 38.6875 122.878 38.6875 122.86C38.6875 122.842 38.6922 122.825 38.7011 122.81C38.7402 122.742 38.7705 122.669 38.7913 122.593C38.8226 122.502 38.8408 122.407 38.8455 122.312C38.8513 122.277 38.8484 122.241 38.8371 122.208C38.8258 122.174 38.8063 122.144 38.7805 122.12L38.156 121.712L37.185 123.015C37.1563 123.046 37.1346 123.082 37.1212 123.122C37.1079 123.161 37.1033 123.203 37.1078 123.245C37.1122 123.286 37.1256 123.326 37.1471 123.362C37.1685 123.398 37.1975 123.429 37.2319 123.452L38.0008 124.019C38.0784 124.08 38.1677 124.125 38.2634 124.151C38.359 124.176 38.4588 124.182 38.5567 124.167C38.8139 124.111 39.0511 123.987 39.2425 123.806C39.2607 123.796 39.2812 123.791 39.3021 123.791C39.3229 123.791 39.3434 123.796 39.3616 123.806C39.4075 123.82 39.4512 123.841 39.4916 123.867C39.5228 123.891 39.5476 123.922 39.5638 123.958C39.5717 123.973 39.5759 123.991 39.5759 124.008C39.5759 124.026 39.5717 124.043 39.5638 124.059L38.6866 124.957L35.8278 122.795C35.8134 122.785 35.8026 122.77 35.7968 122.753C35.7909 122.737 35.7904 122.718 35.7953 122.701C35.7994 122.662 35.8144 122.624 35.8386 122.593C35.8555 122.57 35.8797 122.554 35.9072 122.546Z" fill="white"/>
<path d="M41.7082 126.765C41.7756 126.88 41.8529 126.989 41.9392 127.09C42.0593 127.213 42.1982 127.315 42.3507 127.393C42.5693 127.531 42.8161 127.617 43.0726 127.646C43.3092 127.676 43.5493 127.635 43.7621 127.527C43.9888 127.409 44.1768 127.229 44.3035 127.007C44.416 126.83 44.4691 126.621 44.4551 126.412C44.4447 126.207 44.3983 126.005 44.318 125.816C44.2386 125.628 44.1267 125.401 43.9859 125.141L43.9606 125.098L43.9317 125.044C43.809 124.82 43.7079 124.614 43.6394 124.459C43.5728 124.312 43.5266 124.156 43.5022 123.997C43.4788 123.859 43.5043 123.717 43.5744 123.596C43.6194 123.499 43.6854 123.413 43.7676 123.345C43.8499 123.276 43.9463 123.227 44.0499 123.2C44.1536 123.174 44.2618 123.17 44.3669 123.191C44.4719 123.211 44.5711 123.255 44.6573 123.318C44.8005 123.406 44.9176 123.531 44.9966 123.679C45.0845 123.832 45.1318 124.005 45.1338 124.181C45.134 124.393 45.0923 124.602 45.011 124.798C45.0068 124.807 45.0041 124.816 45.0032 124.826C45.0029 124.829 45.0028 124.831 45.0028 124.834L45.0029 124.839C45.0031 124.842 45.0033 124.844 45.0037 124.847C45.0043 124.851 45.0052 124.854 45.0063 124.858C45.0076 124.862 45.0092 124.866 45.011 124.87C45.0285 124.899 45.0534 124.923 45.0832 124.939C45.1021 124.952 45.1233 124.96 45.1456 124.965C45.168 124.969 45.1909 124.969 45.2132 124.964C45.2381 124.958 45.2613 124.946 45.2813 124.93C45.3012 124.914 45.3174 124.893 45.3287 124.87C45.394 124.753 45.453 124.633 45.5056 124.509C45.5252 124.467 45.5437 124.428 45.5611 124.39C45.5949 124.317 45.625 124.252 45.6536 124.195C45.6949 124.106 45.7419 124.019 45.7943 123.935C45.801 123.922 45.805 123.907 45.8061 123.892L45.8064 123.887L45.8064 123.883C45.8064 123.865 45.8023 123.847 45.7943 123.831C45.7752 123.79 45.7436 123.755 45.7041 123.733C45.6785 123.716 45.6485 123.706 45.6175 123.704H45.4839C45.4553 123.7 45.4282 123.689 45.4045 123.672C45.3708 123.644 45.3405 123.613 45.3142 123.578C45.2396 123.489 45.1602 123.402 45.076 123.318C44.9728 123.222 44.859 123.139 44.7367 123.069C44.5454 122.953 44.3333 122.876 44.1122 122.842C43.8896 122.806 43.6613 122.831 43.4517 122.914C43.2222 123.012 43.0317 123.183 42.9102 123.401C42.7839 123.6 42.7175 123.83 42.7189 124.065C42.7235 124.282 42.7714 124.495 42.8597 124.693C42.963 124.928 43.0837 125.155 43.2206 125.372C43.3882 125.632 43.5228 125.912 43.6213 126.206C43.6584 126.313 43.6718 126.427 43.6606 126.54C43.6494 126.652 43.6138 126.761 43.5563 126.859C43.5082 126.965 43.4351 127.058 43.3433 127.13C43.2516 127.201 43.1438 127.25 43.0293 127.271C42.8152 127.286 42.602 127.23 42.4229 127.112C42.3091 127.04 42.2089 126.948 42.1269 126.841C42.0337 126.72 41.9639 126.583 41.9212 126.437C41.8706 126.276 41.8546 126.106 41.8742 125.939C41.8959 125.756 41.9175 125.611 41.9392 125.506C41.9583 125.41 41.9837 125.316 42.015 125.224C42.0231 125.205 42.0273 125.184 42.0273 125.163C42.0273 125.142 42.0231 125.121 42.015 125.101C42.0013 125.063 41.9744 125.031 41.9392 125.011C41.9216 124.999 41.9014 124.99 41.8802 124.987C41.859 124.983 41.8373 124.984 41.8165 124.989C41.7941 124.995 41.7733 125.005 41.7552 125.02C41.7372 125.034 41.7224 125.052 41.7118 125.072C41.6865 125.108 41.636 125.213 41.5566 125.379C41.5133 125.473 41.4627 125.581 41.405 125.693C41.3472 125.805 41.2931 125.899 41.2281 126.007C41.1631 126.116 41.1126 126.195 41.0801 126.242C41.0667 126.258 41.0569 126.276 41.0513 126.296C41.0477 126.309 41.0459 126.322 41.0459 126.336C41.0459 126.343 41.0465 126.35 41.0476 126.357C41.0491 126.367 41.0516 126.376 41.055 126.384C41.0588 126.394 41.0636 126.403 41.0696 126.412C41.0808 126.428 41.0955 126.441 41.1126 126.451C41.1493 126.471 41.19 126.482 41.2317 126.484C41.2846 126.485 41.3372 126.477 41.3869 126.459C41.4055 126.45 41.4259 126.445 41.4465 126.445C41.4671 126.445 41.4875 126.45 41.506 126.459C41.5274 126.471 41.5458 126.489 41.5602 126.509L41.6179 126.61L41.6721 126.704C41.6858 126.723 41.6979 126.744 41.7082 126.765Z" fill="white"/>
<path d="M45.8445 129.191C45.8428 129.153 45.8502 129.115 45.8661 129.08C45.8775 129.05 45.8994 129.026 45.9275 129.011C45.9422 129.004 45.9582 129.001 45.9744 129.001C45.9801 129.001 45.9857 129.001 45.9913 129.002C45.9947 129.003 45.9981 129.003 46.0015 129.004C46.0042 129.005 46.0069 129.005 46.0095 129.006L46.0157 129.009L46.0213 129.011C46.1283 129.058 46.2413 129.089 46.357 129.105C46.4545 129.105 46.5195 129.105 46.5484 129.036L48.1799 125.788C48.1947 125.755 48.2023 125.719 48.2023 125.683C48.2023 125.647 48.1947 125.611 48.1799 125.578C48.1573 125.517 48.1186 125.464 48.068 125.423C47.9986 125.369 47.9263 125.318 47.8515 125.271C47.8208 125.255 47.7947 125.232 47.7756 125.203C47.7707 125.169 47.7784 125.134 47.7973 125.105C47.8179 125.073 47.8449 125.044 47.8767 125.022C47.8897 125.009 47.9064 125.001 47.9244 124.997C47.9425 124.994 47.9611 124.997 47.9778 125.004L49.4902 125.762C49.5052 125.772 49.5173 125.785 49.5249 125.801C49.5326 125.817 49.5356 125.835 49.5336 125.853C49.5437 125.889 49.5437 125.928 49.5336 125.964C49.521 125.994 49.4979 126.019 49.4686 126.033C49.4549 126.041 49.4393 126.045 49.4235 126.045C49.4076 126.045 49.3921 126.041 49.3783 126.033C49.2699 125.99 49.1574 125.959 49.0426 125.939C48.9416 125.939 48.8766 125.939 48.8477 126.008L47.2198 129.256C47.2008 129.288 47.1891 129.322 47.1853 129.359C47.1816 129.395 47.186 129.432 47.1981 129.466C47.2229 129.526 47.2612 129.579 47.31 129.621L47.5266 129.776C47.5699 129.802 47.5952 129.823 47.6024 129.845C47.6071 129.878 47.5994 129.911 47.5807 129.939C47.5615 129.973 47.5343 130.003 47.5013 130.025C47.4868 130.035 47.4699 130.04 47.4526 130.04C47.4353 130.04 47.4184 130.035 47.4038 130.025L45.8914 129.267C45.8774 129.26 45.8657 129.249 45.8574 129.236C45.8492 129.223 45.8447 129.207 45.8445 129.191Z" fill="white"/>
<path d="M50.4074 130.397C50.4731 130.793 50.651 131.161 50.92 131.458C51.1493 131.721 51.4341 131.929 51.7538 132.068C52.0267 132.18 52.3112 132.259 52.6021 132.307C52.8133 132.34 53.0278 132.349 53.241 132.332C53.366 132.325 53.4886 132.295 53.602 132.242L54.0315 131.09C54.0532 131.029 54.1145 131 54.2048 131C54.3115 131.003 54.4173 131.021 54.5188 131.054C54.5332 131.062 54.5493 131.066 54.5656 131.066C54.582 131.066 54.5981 131.062 54.6127 131.055C54.6272 131.048 54.6398 131.037 54.6492 131.023C54.6586 131.01 54.6647 130.994 54.6668 130.978C54.6782 130.942 54.6782 130.903 54.6668 130.866C54.6681 130.848 54.6636 130.83 54.6539 130.814C54.6441 130.799 54.6297 130.787 54.6127 130.78L53.01 130.148C52.9931 130.142 52.9747 130.141 52.9572 130.145C52.9397 130.15 52.9241 130.159 52.9125 130.173C52.8813 130.197 52.8565 130.228 52.8403 130.264C52.8296 130.295 52.8296 130.329 52.8403 130.361C52.8616 130.389 52.8904 130.41 52.9233 130.422C53.0316 130.477 53.1219 130.523 53.1905 130.567C53.2571 130.605 53.3129 130.66 53.3529 130.726C53.37 130.76 53.379 130.797 53.379 130.836C53.379 130.874 53.37 130.912 53.3529 130.946L53.0389 131.747C53.0117 131.809 52.9675 131.863 52.9113 131.901C52.8551 131.94 52.7892 131.961 52.7212 131.964C52.4815 131.977 52.2423 131.931 52.0245 131.83C51.7996 131.733 51.605 131.577 51.4614 131.379C51.276 131.123 51.1649 130.821 51.1402 130.505C51.1111 130.079 51.1854 129.652 51.3567 129.26C51.5051 128.826 51.7522 128.431 52.0787 128.109C52.295 127.898 52.5711 127.759 52.8692 127.712C53.0988 127.681 53.3325 127.709 53.5478 127.795C53.8461 127.899 54.0954 128.11 54.2481 128.387C54.3839 128.656 54.4379 128.96 54.4033 129.26C54.3853 129.325 54.4141 129.368 54.4827 129.397H54.5188C54.5489 129.41 54.5826 129.41 54.6127 129.397C54.6293 129.392 54.6442 129.382 54.6556 129.368C54.667 129.355 54.6747 129.339 54.6776 129.321L54.9917 128.329C54.8999 128.236 54.8035 128.148 54.7029 128.065C54.5769 127.962 54.4415 127.87 54.2986 127.791C54.097 127.676 53.887 127.576 53.6705 127.491C53.3259 127.358 52.9559 127.304 52.5876 127.333C52.1767 127.365 51.7834 127.514 51.4542 127.762C51.0757 128.081 50.782 128.488 50.5994 128.948C50.4167 129.408 50.3507 129.906 50.4074 130.397Z" fill="white"/>
<path d="M56.1684 133.483C56.1594 133.445 56.1594 133.406 56.1684 133.368C56.1751 133.339 56.1902 133.312 56.2117 133.292C56.2264 133.285 56.2424 133.282 56.2587 133.282C56.2749 133.282 56.2909 133.285 56.3056 133.292C56.6485 133.357 56.8398 133.292 56.8795 133.155L57.8072 129.722C57.8183 129.687 57.8215 129.649 57.8165 129.612C57.8115 129.575 57.7985 129.54 57.7783 129.509C57.7392 129.455 57.6886 129.411 57.6303 129.379C57.5726 129.35 57.4859 129.314 57.3704 129.267C57.3373 129.259 57.3072 129.241 57.2838 129.217C57.2709 129.184 57.2709 129.148 57.2838 129.116C57.2947 129.079 57.3145 129.045 57.3415 129.018C57.3524 129.003 57.3675 128.992 57.3848 128.985C57.4022 128.979 57.421 128.978 57.439 128.982L58.5219 129.274L60.0705 133.53H60.1102L60.9115 130.552C60.9252 130.516 60.9284 130.476 60.9207 130.438C60.9131 130.399 60.8949 130.364 60.8682 130.336C60.8228 130.28 60.7662 130.234 60.7021 130.202C60.6527 130.177 60.5743 130.145 60.4713 130.102L60.47 130.101L60.417 130.079C60.3833 130.073 60.3528 130.055 60.3303 130.029C60.3191 129.997 60.3191 129.963 60.3303 129.931C60.3425 129.893 60.3636 129.859 60.3917 129.83C60.4023 129.816 60.4168 129.805 60.4334 129.799C60.441 129.796 60.449 129.794 60.4571 129.793L60.4616 129.792L60.4674 129.792C60.4735 129.792 60.4796 129.793 60.4856 129.794L61.9583 130.191C61.9908 130.191 62.0088 130.227 62.0197 130.271C62.0286 130.309 62.0286 130.348 62.0197 130.386C62.0135 130.416 61.9968 130.443 61.9727 130.462C61.9581 130.469 61.9421 130.473 61.9258 130.473C61.9156 130.473 61.9054 130.471 61.8957 130.468C61.8924 130.467 61.8892 130.466 61.8861 130.465L61.8789 130.462L61.684 130.429C61.5853 130.411 61.4837 130.417 61.388 130.448C61.3487 130.461 61.3135 130.485 61.2857 130.515C61.2579 130.546 61.2385 130.584 61.2292 130.624L60.2509 134.234C60.2393 134.275 60.2321 134.318 60.2293 134.36L60.2076 134.476C60.2063 134.508 60.1966 134.54 60.1795 134.568C60.1625 134.596 60.1386 134.619 60.1102 134.635C60.0603 134.655 60.0048 134.655 59.9549 134.635C59.9214 134.624 59.8897 134.608 59.8611 134.588C59.8356 134.568 59.8136 134.543 59.7961 134.516L58.096 130.029H58.0418L57.1972 133.158C57.1851 133.195 57.182 133.233 57.1883 133.271C57.1946 133.309 57.21 133.345 57.2333 133.375C57.2763 133.429 57.3305 133.473 57.3921 133.505C57.4534 133.534 57.5437 133.574 57.6628 133.62C57.6964 133.63 57.7265 133.648 57.7494 133.675C57.7621 133.706 57.7621 133.741 57.7494 133.772C57.7393 133.81 57.7194 133.845 57.6917 133.873C57.6808 133.887 57.6663 133.898 57.6498 133.904C57.6332 133.911 57.6153 133.912 57.5978 133.909L56.2226 133.548C56.2091 133.542 56.1972 133.533 56.1877 133.522C56.1783 133.511 56.1717 133.498 56.1684 133.483Z" fill="white"/>
<path fill-rule="evenodd" clip-rule="evenodd" d="M66.6253 135.266C66.7385 135.483 66.9097 135.664 67.1198 135.79C67.3675 135.936 67.6453 136.023 67.932 136.046C68.1829 136.075 68.4372 136.047 68.6755 135.963C68.9001 135.879 69.1053 135.75 69.2784 135.584L69.661 136.122L70.6428 136.219C70.6592 136.221 70.6758 136.219 70.691 136.213C70.7062 136.207 70.7194 136.196 70.7294 136.183C70.7519 136.158 70.7658 136.127 70.7691 136.093C70.7804 136.062 70.7804 136.027 70.7691 135.996C70.7419 135.975 70.7094 135.962 70.6753 135.959C70.5596 135.932 70.4489 135.887 70.3468 135.826C70.249 135.771 70.1612 135.7 70.0869 135.617L69.6863 135.061C69.7471 134.965 69.8156 134.846 69.9073 134.687C69.957 134.601 70.0139 134.502 70.0797 134.389L70.154 134.262C70.304 134.005 70.416 133.813 70.4876 133.707C70.5454 133.63 70.6244 133.571 70.715 133.537C70.8117 133.501 70.9157 133.489 71.0182 133.501C71.094 133.508 71.1409 133.472 71.1409 133.389C71.1443 133.356 71.1381 133.322 71.1229 133.292C71.1195 133.286 71.1156 133.281 71.1113 133.277C71.1048 133.269 71.0973 133.263 71.089 133.258C71.0752 133.249 71.0597 133.243 71.0435 133.241L69.7332 133.111C69.7172 133.109 69.7008 133.111 69.6856 133.116C69.6704 133.122 69.657 133.131 69.6465 133.144C69.6234 133.169 69.6094 133.2 69.6068 133.234C69.5985 133.264 69.5985 133.295 69.6068 133.324C69.6163 133.337 69.6283 133.347 69.642 133.354C69.6472 133.357 69.6525 133.36 69.6581 133.362C69.6672 133.365 69.6766 133.367 69.6863 133.368C69.7806 133.386 69.8727 133.415 69.9606 133.454C69.9927 133.463 70.0208 133.482 70.0399 133.509C70.0591 133.536 70.068 133.569 70.0653 133.602C70.0074 133.787 69.9325 133.966 69.8415 134.137C69.6826 134.454 69.5671 134.667 69.4805 134.815L68.3976 133.324C68.6481 133.225 68.8896 133.104 69.1195 132.963C69.2683 132.875 69.3924 132.751 69.4805 132.602C69.5626 132.445 69.6105 132.271 69.6213 132.094C69.6415 131.939 69.6111 131.782 69.5346 131.646C69.4501 131.503 69.3243 131.388 69.1737 131.317C68.992 131.223 68.7931 131.167 68.5889 131.151C68.3522 131.119 68.1111 131.147 67.8886 131.234C67.7071 131.308 67.5514 131.434 67.441 131.595C67.3362 131.763 67.273 131.954 67.2567 132.151C67.2404 132.348 67.2714 132.546 67.3472 132.729C67.439 132.954 67.5527 133.169 67.6865 133.371C66.9549 133.569 66.5591 133.971 66.4989 134.577C66.4742 134.814 66.518 135.053 66.6253 135.266ZM69.0762 135.324C68.9205 135.474 68.7347 135.59 68.5312 135.663V135.671C68.3521 135.729 68.1626 135.749 67.9753 135.728C67.8037 135.716 67.6407 135.649 67.5096 135.537C67.3901 135.432 67.3025 135.296 67.257 135.144C67.2098 134.983 67.195 134.815 67.2136 134.649C67.2317 134.427 67.2891 134.209 67.3833 134.007C67.4814 133.812 67.6432 133.656 67.8417 133.566L69.0762 135.324ZM68.9354 132.545C68.8853 132.66 68.8086 132.761 68.7116 132.841V132.848C68.5677 132.95 68.4156 133.041 68.2568 133.119C68.1248 132.949 68.0212 132.759 67.95 132.556C67.8959 132.357 67.8812 132.15 67.9067 131.946C67.9159 131.835 67.9546 131.729 68.0186 131.639C68.0774 131.549 68.1582 131.476 68.2532 131.426C68.3418 131.379 68.4422 131.359 68.542 131.368C68.6557 131.375 68.7632 131.422 68.8452 131.502C68.9205 131.576 68.9763 131.668 69.0076 131.769C69.0377 131.858 69.05 131.952 69.0437 132.047C69.0326 132.217 68.9961 132.385 68.9354 132.545Z" fill="white"/>
<path d="M77.7649 136.317C77.6406 136.281 77.5198 136.234 77.4039 136.176L77.3425 136.147L77.2451 136.097L77.1404 136.046H77.0682C77.0478 136.048 77.028 136.054 77.0105 136.065C76.993 136.076 76.9781 136.09 76.9671 136.107C76.9362 136.152 76.897 136.19 76.8516 136.219C76.8166 136.241 76.7771 136.255 76.7361 136.259C76.7161 136.26 76.6961 136.256 76.6775 136.249C76.6589 136.241 76.642 136.23 76.6278 136.216C76.6141 136.201 76.6038 136.183 76.5975 136.164C76.5913 136.144 76.5893 136.124 76.5917 136.104V135.826C76.5917 135.728 76.5809 135.641 76.5693 135.548C76.5659 135.521 76.5625 135.493 76.5592 135.465C76.5462 135.351 76.5302 135.245 76.5139 135.138L76.5087 135.104C76.4834 134.924 76.469 134.808 76.4654 134.765C76.4623 134.743 76.464 134.72 76.4704 134.699C76.4767 134.677 76.4877 134.657 76.5024 134.641C76.5172 134.624 76.5353 134.61 76.5557 134.601C76.5761 134.592 76.5983 134.588 76.6206 134.588C76.6612 134.584 76.7019 134.595 76.7361 134.617C76.7689 134.643 76.7928 134.678 76.8047 134.718C76.83 134.804 76.8625 134.895 76.9022 134.996C76.9419 135.097 77.0032 135.223 77.0899 135.389C77.1672 135.538 77.274 135.669 77.4039 135.775C77.5215 135.875 77.6577 135.95 77.8046 135.996C77.932 136.04 78.0668 136.06 78.2017 136.053C78.4152 136.052 78.6224 135.98 78.79 135.848C78.8736 135.766 78.9363 135.666 78.9727 135.556C79.0092 135.445 79.0183 135.327 78.9994 135.212C78.9925 135.099 78.9608 134.988 78.9065 134.889C78.8523 134.789 78.7768 134.702 78.6854 134.635C78.4414 134.445 78.1731 134.288 77.8876 134.169C77.6517 134.066 77.4237 133.945 77.2054 133.808C77.0215 133.692 76.862 133.541 76.7361 133.364C76.6043 133.171 76.5316 132.944 76.5267 132.711C76.5012 132.457 76.5623 132.203 76.7 131.989C76.8266 131.8 77.0027 131.651 77.209 131.556C77.4111 131.462 77.6292 131.409 77.8515 131.397C77.9925 131.387 78.1342 131.394 78.2738 131.415C78.3901 131.434 78.5047 131.462 78.6168 131.498C78.6419 131.506 78.6675 131.512 78.6934 131.516C78.7111 131.519 78.7288 131.522 78.7467 131.523C78.7743 131.524 78.8016 131.518 78.8261 131.505L78.8332 131.502L78.8386 131.499C78.8428 131.496 78.8469 131.494 78.8509 131.491C78.8575 131.486 78.8637 131.482 78.8696 131.476L78.8738 131.472L78.8803 131.465L78.9092 131.458C78.9353 131.439 78.967 131.429 78.9994 131.429C79.0439 131.426 79.0884 131.437 79.1257 131.462C79.1362 131.467 79.1459 131.473 79.1544 131.48C79.1599 131.485 79.1649 131.491 79.1694 131.497C79.1808 131.512 79.1881 131.53 79.1907 131.548C79.1938 131.646 79.2022 131.744 79.216 131.841L79.2701 132.202C79.2968 132.333 79.3161 132.466 79.3279 132.599C79.3315 132.625 79.3295 132.651 79.322 132.676C79.3191 132.686 79.3154 132.695 79.3109 132.704L79.3079 132.71C79.3014 132.722 79.2936 132.733 79.2846 132.743C79.2516 132.775 79.2077 132.793 79.1618 132.794C79.1284 132.795 79.0952 132.789 79.0644 132.776C79.0319 132.776 79.0138 132.743 79.0102 132.725C78.9691 132.518 78.8855 132.321 78.7648 132.148C78.6712 132.005 78.5421 131.89 78.3902 131.812C78.2382 131.735 78.0687 131.699 77.8984 131.707C77.7894 131.7 77.6801 131.718 77.579 131.759C77.4778 131.801 77.3873 131.864 77.3143 131.946C77.2413 132.027 77.1877 132.124 77.1576 132.229C77.1275 132.334 77.1216 132.444 77.1404 132.552C77.1525 132.688 77.2112 132.815 77.3064 132.913C77.4124 133.031 77.5338 133.134 77.6674 133.22C77.8118 133.31 78.0031 133.415 78.2377 133.537L78.2883 133.566L78.3352 133.592C78.5987 133.729 78.8153 133.851 78.9886 133.953C79.1595 134.065 79.3107 134.206 79.4362 134.368C79.5636 134.535 79.6355 134.738 79.6419 134.949C79.6599 135.199 79.606 135.45 79.4867 135.671C79.3665 135.876 79.1915 136.043 78.9813 136.154C78.7572 136.269 78.511 136.335 78.2594 136.346C78.0941 136.361 77.9273 136.351 77.7649 136.317Z" fill="white"/>
<path d="M82.7716 135.685C82.7809 135.723 82.7968 135.758 82.8185 135.79C82.8258 135.812 82.8406 135.831 82.8604 135.844C82.8801 135.856 82.9036 135.861 82.9268 135.858L84.9662 135.566C84.9839 135.563 85.0003 135.555 85.0132 135.543C85.0261 135.531 85.0349 135.515 85.0384 135.497C85.0481 135.46 85.0481 135.42 85.0384 135.382C85.0366 135.349 85.024 135.317 85.0023 135.292C84.9693 135.282 84.9343 135.282 84.9013 135.292C84.7895 135.298 84.6774 135.298 84.5656 135.292C84.4795 135.293 84.3944 135.274 84.3165 135.238C84.2798 135.222 84.2482 135.197 84.2252 135.164C84.2022 135.132 84.1888 135.093 84.1866 135.053L83.6523 131.292L84.4898 131.173C84.6522 131.148 84.7858 131.253 84.8941 131.484C84.9979 131.702 85.0777 131.93 85.1323 132.166C85.1351 132.182 85.141 132.197 85.1496 132.21C85.1583 132.224 85.1696 132.236 85.1828 132.245C85.2117 132.257 85.2442 132.257 85.2731 132.245C85.3115 132.239 85.3476 132.223 85.3777 132.198C85.3931 132.19 85.4057 132.177 85.4141 132.162C85.4224 132.147 85.4261 132.129 85.4247 132.112C85.3741 131.823 85.3164 131.523 85.2478 131.206C85.2302 131.043 85.1851 130.884 85.1142 130.736L81.3963 131.256C81.3766 131.726 81.4044 132.196 81.4793 132.66C81.4793 132.693 81.5046 132.732 81.5479 132.732C81.5847 132.747 81.6241 132.753 81.6634 132.751C81.6939 132.747 81.7227 132.734 81.7464 132.714C81.7663 132.687 81.7753 132.654 81.7717 132.621C81.7565 132.379 81.7698 132.137 81.8114 131.899C81.8511 131.646 81.9522 131.505 82.111 131.484L82.9557 131.364L83.4899 135.137C83.4977 135.191 83.4861 135.247 83.4571 135.294C83.428 135.34 83.3834 135.376 83.3311 135.393C83.1798 135.465 83.0195 135.516 82.8546 135.544C82.8214 135.55 82.7917 135.568 82.7716 135.595C82.7632 135.624 82.7632 135.656 82.7716 135.685Z" fill="white"/>
<path fill-rule="evenodd" clip-rule="evenodd" d="M88.1968 134.916C88.1716 134.887 88.1521 134.852 88.139 134.815C88.1373 134.811 88.1359 134.807 88.1347 134.803L88.1332 134.797L88.132 134.79C88.1309 134.783 88.1305 134.776 88.1308 134.768C88.1316 134.752 88.136 134.737 88.1436 134.723C88.1512 134.708 88.1618 134.696 88.1748 134.687C88.1825 134.681 88.1909 134.676 88.1997 134.673C88.2057 134.67 88.212 134.669 88.2185 134.667C88.3298 134.632 88.4364 134.584 88.5361 134.523C88.6191 134.469 88.6552 134.408 88.6372 134.343L87.7672 130.827C87.7617 130.791 87.7485 130.756 87.7286 130.726C87.7086 130.695 87.6824 130.669 87.6517 130.65C87.5988 130.62 87.5393 130.604 87.4785 130.603L87.2294 130.625C87.1965 130.635 87.1613 130.635 87.1283 130.625C87.1025 130.603 87.0858 130.572 87.0814 130.538C87.0725 130.5 87.0725 130.46 87.0814 130.422C87.0836 130.405 87.0909 130.388 87.1024 130.375C87.114 130.361 87.1293 130.352 87.1464 130.347L87.7528 130.191C87.9369 130.145 88.1318 130.094 88.334 130.033L88.5253 129.975C88.63 129.946 88.7491 129.914 88.8863 129.881C89.3001 129.761 89.7394 129.761 90.1533 129.881C90.3292 129.945 90.4849 130.055 90.6048 130.199C90.7246 130.343 90.8042 130.516 90.8355 130.7C90.9243 131 90.8998 131.322 90.7667 131.605C90.6336 131.888 90.4011 132.112 90.1135 132.235C90.2688 132.206 90.4287 132.216 90.5791 132.264C90.7296 132.312 90.8659 132.396 90.9763 132.509C91.0958 132.641 91.2079 132.779 91.312 132.924C91.3986 133.043 91.4672 133.137 91.5213 133.206C91.5767 133.275 91.637 133.34 91.7018 133.4C91.7681 133.491 91.8569 133.563 91.9595 133.608C92.0622 133.654 92.1749 133.672 92.2866 133.66C92.3192 133.648 92.3551 133.648 92.3877 133.66C92.4151 133.688 92.4329 133.723 92.4382 133.761C92.4469 133.796 92.4469 133.832 92.4382 133.866C92.4352 133.883 92.4274 133.898 92.4159 133.91C92.4044 133.922 92.3895 133.931 92.3732 133.935L91.5033 134.151C91.4621 134.162 91.4191 134.162 91.3777 134.153C91.3363 134.143 91.2977 134.124 91.265 134.097C91.1808 134.031 91.1055 133.955 91.0412 133.87C90.9691 133.772 90.8752 133.635 90.7597 133.462C90.6081 133.227 90.4745 133.039 90.3626 132.895C90.2533 132.76 90.1214 132.645 89.9728 132.556C89.8297 132.473 89.66 132.45 89.4999 132.491L88.9223 132.635L89.2833 134.079C89.2898 134.117 89.3049 134.152 89.3274 134.183C89.35 134.214 89.3794 134.239 89.4133 134.256C89.4816 134.285 89.5558 134.297 89.6299 134.292C89.7268 134.287 89.8233 134.275 89.9186 134.256C89.9518 134.248 89.9865 134.248 90.0197 134.256C90.0455 134.278 90.0623 134.309 90.0666 134.343C90.0755 134.381 90.0755 134.42 90.0666 134.458C90.0666 134.505 90.0341 134.53 90.0016 134.537L88.3051 134.96C88.295 134.962 88.2847 134.963 88.2746 134.962C88.2642 134.962 88.2539 134.959 88.2441 134.955C88.2378 134.953 88.2318 134.95 88.2262 134.946C88.2145 134.938 88.2045 134.928 88.1968 134.916ZM90.1641 130.975C90.1451 130.825 90.0915 130.682 90.0075 130.557C89.9235 130.431 89.8115 130.327 89.6804 130.253C89.4058 130.145 89.1025 130.135 88.8213 130.224L88.352 130.339L88.8502 132.361L89.3952 132.224C90.0738 132.058 90.3301 131.643 90.1641 130.975Z" fill="white"/>
<path fill-rule="evenodd" clip-rule="evenodd" d="M98.7299 131.57C98.721 131.538 98.702 131.509 98.6758 131.487C98.6531 131.483 98.6299 131.483 98.6072 131.487L98.5206 131.516C98.464 131.535 98.4061 131.549 98.3473 131.56C98.297 131.564 98.2462 131.557 98.1993 131.538C98.1376 131.513 98.0839 131.472 98.0441 131.419L95.1852 127.91L94.6799 128.094V132.632C94.6831 132.7 94.6681 132.769 94.6366 132.83C94.6113 132.874 94.5753 132.912 94.5319 132.938C94.4792 132.968 94.4249 132.994 94.3694 133.018L94.2864 133.05C94.2528 133.061 94.2237 133.083 94.2034 133.112C94.1842 133.131 94.1842 133.163 94.2034 133.209C94.2166 133.248 94.2403 133.283 94.272 133.31C94.2847 133.322 94.3007 133.331 94.318 133.334C94.3353 133.337 94.3532 133.335 94.3694 133.328L95.7014 132.845C95.7176 132.837 95.7313 132.826 95.7409 132.811C95.7505 132.796 95.7556 132.779 95.7556 132.762C95.7649 132.724 95.7649 132.684 95.7556 132.646C95.7482 132.617 95.7302 132.591 95.705 132.574C95.6748 132.562 95.6414 132.562 95.6112 132.574L95.4523 132.624C95.3735 132.652 95.2926 132.674 95.2105 132.689C95.1913 132.695 95.1706 132.694 95.1525 132.685C95.1345 132.676 95.1204 132.661 95.113 132.642C95.1116 132.629 95.1116 132.616 95.113 132.603L95.0842 131.321L96.5966 130.773L97.3727 131.776C97.3832 131.788 97.3917 131.801 97.398 131.816C97.4029 131.834 97.4008 131.854 97.3922 131.872C97.3836 131.889 97.3689 131.902 97.351 131.91C97.2794 131.951 97.2045 131.986 97.1272 132.014L97.0009 132.068C96.9955 132.07 96.9902 132.072 96.9851 132.075C96.9813 132.077 96.9776 132.079 96.974 132.081C96.9705 132.084 96.9672 132.086 96.9639 132.089L96.9602 132.092C96.9484 132.103 96.9389 132.115 96.9323 132.13C96.9263 132.144 96.9231 132.159 96.9231 132.175C96.9231 132.19 96.9263 132.206 96.9323 132.22C96.9453 132.257 96.9678 132.289 96.9973 132.314C97.0027 132.32 97.0088 132.325 97.0154 132.329C97.0241 132.335 97.0338 132.339 97.0439 132.342C97.0617 132.347 97.0805 132.347 97.0984 132.343L98.6722 131.769C98.6887 131.762 98.7029 131.751 98.7132 131.736C98.7173 131.73 98.7206 131.724 98.7233 131.717C98.7251 131.712 98.7266 131.708 98.7277 131.703C98.7286 131.699 98.7292 131.695 98.7296 131.691L98.7299 131.686C98.7394 131.648 98.7394 131.608 98.7299 131.57ZM95.0661 131.022V128.856L96.3909 130.542L95.0661 131.022Z" fill="white"/>
<path d="M101.264 130.552C101.231 130.531 101.205 130.501 101.188 130.466C101.178 130.453 101.171 130.438 101.168 130.422C101.167 130.416 101.166 130.41 101.166 130.405C101.166 130.401 101.166 130.398 101.166 130.394C101.167 130.387 101.168 130.381 101.17 130.374C101.175 130.358 101.183 130.344 101.194 130.332C101.206 130.321 101.219 130.312 101.235 130.307C101.386 130.228 101.525 130.13 101.65 130.014C101.694 129.982 101.726 129.935 101.739 129.881C101.752 129.828 101.746 129.771 101.722 129.722L100.076 126.286L99.3073 126.647C99.1581 126.719 99.104 126.881 99.1449 127.134C99.1781 127.373 99.2386 127.608 99.3254 127.834C99.3378 127.864 99.3378 127.898 99.3254 127.928C99.3084 127.953 99.2846 127.973 99.2568 127.986C99.2204 128.002 99.1809 128.009 99.1413 128.007C99.0944 128.007 99.0655 127.989 99.0547 127.957C98.8456 127.536 98.6764 127.096 98.5493 126.643L101.924 125.019C101.946 125.019 102.036 125.145 102.195 125.426C102.354 125.708 102.502 125.979 102.635 126.235C102.642 126.252 102.643 126.27 102.64 126.288C102.639 126.294 102.637 126.3 102.635 126.306C102.634 126.31 102.632 126.314 102.63 126.318C102.628 126.322 102.626 126.325 102.624 126.328C102.622 126.331 102.62 126.334 102.617 126.336C102.595 126.368 102.565 126.394 102.531 126.412C102.503 126.422 102.472 126.422 102.444 126.412C102.428 126.408 102.414 126.4 102.401 126.389C102.395 126.384 102.389 126.377 102.383 126.37C102.379 126.364 102.375 126.357 102.372 126.351C102.25 126.142 102.105 125.948 101.939 125.773C101.766 125.585 101.607 125.528 101.459 125.596L100.697 125.957L102.339 129.383C102.355 129.419 102.379 129.452 102.411 129.476C102.443 129.5 102.48 129.515 102.52 129.52C102.605 129.53 102.691 129.523 102.773 129.498C102.88 129.465 102.986 129.426 103.09 129.383C103.123 129.372 103.159 129.372 103.191 129.383C103.209 129.383 103.231 129.411 103.253 129.458C103.269 129.493 103.275 129.532 103.271 129.57C103.273 129.588 103.27 129.607 103.261 129.623C103.253 129.639 103.24 129.652 103.224 129.661L101.368 130.552C101.353 130.563 101.335 130.569 101.316 130.569C101.297 130.569 101.279 130.563 101.264 130.552Z" fill="white"/>
<path d="M106.028 127.893C106.025 127.899 106.023 127.906 106.022 127.913C106.017 127.945 106.025 127.977 106.043 128.004C106.065 128.035 106.093 128.061 106.127 128.079C106.141 128.09 106.159 128.096 106.177 128.096C106.188 128.096 106.198 128.094 106.208 128.09C106.215 128.087 106.221 128.084 106.228 128.079L109.26 126.231L108.754 125.083C108.744 125.069 108.731 125.057 108.715 125.049C108.699 125.04 108.682 125.036 108.664 125.036C108.626 125.038 108.588 125.049 108.556 125.069C108.515 125.095 108.478 125.128 108.448 125.166C108.432 125.181 108.422 125.2 108.416 125.22C108.411 125.24 108.412 125.262 108.419 125.282C108.514 125.528 108.54 125.795 108.494 126.054C108.469 126.152 108.425 126.243 108.362 126.322C108.3 126.401 108.222 126.466 108.133 126.513L107.321 127.011C107.287 127.034 107.247 127.049 107.206 127.056C107.165 127.062 107.123 127.06 107.083 127.049C107.043 127.037 107.005 127.017 106.974 126.99C106.942 126.963 106.916 126.93 106.899 126.892L106.054 125.506L106.704 125.105C106.735 125.089 106.769 125.081 106.803 125.081C106.838 125.081 106.872 125.089 106.903 125.105C106.99 125.146 107.071 125.198 107.144 125.26C107.208 125.308 107.265 125.364 107.314 125.426C107.324 125.441 107.337 125.453 107.353 125.46C107.369 125.468 107.387 125.471 107.404 125.47C107.442 125.468 107.478 125.455 107.509 125.434C107.539 125.418 107.562 125.392 107.574 125.361C107.582 125.347 107.586 125.331 107.586 125.314C107.586 125.298 107.582 125.282 107.574 125.267L106.802 124C106.793 123.986 106.781 123.973 106.767 123.964C106.752 123.955 106.736 123.95 106.718 123.95C106.709 123.95 106.7 123.95 106.691 123.951C106.679 123.952 106.668 123.955 106.656 123.959C106.65 123.96 106.645 123.962 106.639 123.965C106.634 123.967 106.629 123.969 106.625 123.972C106.545 124.022 106.52 124.08 106.549 124.145C106.576 124.214 106.595 124.285 106.607 124.358C106.624 124.447 106.632 124.538 106.628 124.629C106.63 124.662 106.625 124.696 106.612 124.727C106.6 124.758 106.581 124.786 106.556 124.809L105.888 125.221L104.946 123.668L105.917 123.076C105.986 123.03 106.066 123.004 106.148 123.001C106.226 123.001 106.302 123.02 106.372 123.055C106.444 123.091 106.549 123.149 106.686 123.235L106.903 123.365C106.939 123.39 106.982 123.4 107.025 123.394C107.066 123.386 107.106 123.37 107.141 123.347C107.168 123.332 107.19 123.308 107.202 123.279C107.21 123.265 107.214 123.249 107.214 123.233C107.214 123.218 107.21 123.202 107.202 123.188L106.538 122.318L103.737 124.026C103.722 124.036 103.71 124.05 103.703 124.067C103.696 124.083 103.694 124.102 103.697 124.12C103.698 124.159 103.708 124.197 103.726 124.232C103.751 124.275 103.78 124.293 103.798 124.3C103.816 124.307 103.849 124.296 103.896 124.275C103.976 124.236 104.057 124.203 104.141 124.174C104.203 124.157 104.267 124.157 104.329 124.174C104.365 124.181 104.399 124.197 104.429 124.219C104.458 124.242 104.482 124.271 104.499 124.304L106.383 127.397C106.415 127.455 106.401 127.524 106.336 127.599C106.259 127.688 106.172 127.767 106.076 127.834C106.062 127.843 106.05 127.854 106.041 127.868C106.038 127.872 106.035 127.877 106.033 127.881C106.031 127.885 106.029 127.889 106.028 127.893Z" fill="white"/>
<path d="M112.335 123.914C111.941 123.991 111.534 123.952 111.162 123.803C110.713 123.595 110.322 123.28 110.023 122.886C109.724 122.492 109.526 122.031 109.447 121.543C109.408 121.133 109.484 120.72 109.667 120.352C109.839 120.014 110.086 119.72 110.389 119.493C110.571 119.349 110.764 119.221 110.967 119.11C111.109 119.029 111.257 118.96 111.411 118.904C111.53 118.864 111.656 118.828 111.772 118.796L112.458 119.576C112.47 119.588 112.479 119.604 112.484 119.621C112.489 119.638 112.49 119.656 112.487 119.673C112.486 119.689 112.482 119.705 112.475 119.72C112.467 119.734 112.456 119.747 112.443 119.756L112.418 119.781C112.408 119.792 112.395 119.8 112.382 119.806C112.368 119.811 112.353 119.814 112.339 119.814C112.324 119.814 112.309 119.811 112.296 119.806C112.289 119.803 112.283 119.8 112.277 119.796C112.271 119.792 112.265 119.787 112.259 119.781C112.023 119.595 111.736 119.484 111.436 119.46C111.119 119.446 110.807 119.55 110.563 119.752C110.379 119.894 110.234 120.079 110.14 120.29C110.028 120.57 110.004 120.877 110.072 121.171C110.179 121.617 110.388 122.032 110.682 122.384C110.928 122.734 111.257 123.019 111.638 123.214C111.919 123.357 112.234 123.419 112.548 123.395C112.793 123.374 113.028 123.286 113.227 123.142C113.428 123.012 113.592 122.832 113.703 122.619C113.734 122.558 113.749 122.49 113.745 122.422C113.741 122.355 113.719 122.289 113.681 122.232L113.158 121.55C113.137 121.518 113.109 121.491 113.076 121.473C113.042 121.454 113.005 121.443 112.967 121.442C112.89 121.442 112.815 121.461 112.746 121.496C112.674 121.536 112.588 121.586 112.487 121.655C112.458 121.676 112.424 121.689 112.389 121.691C112.357 121.68 112.331 121.658 112.313 121.63C112.292 121.597 112.279 121.56 112.274 121.521C112.268 121.504 112.268 121.485 112.273 121.468C112.275 121.46 112.279 121.452 112.283 121.445C112.285 121.442 112.287 121.439 112.29 121.436L112.293 121.433L112.297 121.429L112.302 121.424L113.674 120.381C113.689 120.37 113.707 120.365 113.725 120.365C113.743 120.365 113.76 120.37 113.775 120.381C113.811 120.395 113.842 120.419 113.865 120.449C113.888 120.473 113.901 120.503 113.902 120.536C113.901 120.544 113.899 120.552 113.896 120.559C113.894 120.567 113.89 120.574 113.886 120.58C113.878 120.594 113.867 120.606 113.855 120.615C113.774 120.685 113.703 120.767 113.645 120.857C113.624 120.885 113.612 120.919 113.612 120.954C113.612 120.99 113.624 121.024 113.645 121.052L114.407 122.012C114.399 122.138 114.365 122.261 114.306 122.373C114.207 122.564 114.086 122.742 113.945 122.904C113.755 123.129 113.54 123.332 113.302 123.507C113.015 123.715 112.684 123.854 112.335 123.914Z" fill="white"/>
<path d="M116.634 114.348C116.61 114.325 116.58 114.31 116.547 114.305C116.533 114.301 116.519 114.301 116.505 114.305C116.498 114.307 116.491 114.31 116.485 114.313C116.481 114.315 116.478 114.318 116.475 114.321C116.472 114.322 116.47 114.324 116.468 114.327L115.453 115.276C115.441 115.287 115.432 115.301 115.427 115.317C115.424 115.326 115.423 115.335 115.422 115.343C115.422 115.347 115.422 115.35 115.423 115.354L115.423 115.36L115.425 115.366C115.427 115.399 115.441 115.43 115.464 115.453C115.484 115.477 115.51 115.494 115.54 115.503C115.573 115.504 115.605 115.492 115.63 115.471C115.724 115.388 115.823 115.311 115.926 115.24C115.999 115.193 116.053 115.186 116.089 115.215C116.091 115.222 116.092 115.229 116.092 115.237C116.092 115.245 116.091 115.253 116.089 115.261L116.746 117.528L114.533 116.702C114.516 116.695 114.5 116.685 114.486 116.673C114.457 116.64 114.464 116.586 114.515 116.518C114.595 116.417 114.681 116.321 114.771 116.229C114.794 116.206 114.807 116.175 114.807 116.142C114.804 116.112 114.79 116.084 114.768 116.063C114.743 116.04 114.713 116.024 114.681 116.016C114.674 116.014 114.668 116.013 114.661 116.013C114.651 116.013 114.641 116.014 114.631 116.016C114.614 116.021 114.599 116.029 114.587 116.041L113.313 117.236C113.301 117.248 113.293 117.262 113.288 117.278C113.283 117.293 113.281 117.31 113.284 117.326C113.289 117.359 113.303 117.39 113.324 117.416C113.343 117.444 113.373 117.464 113.407 117.471C113.44 117.462 113.471 117.446 113.497 117.424C113.55 117.379 113.607 117.34 113.667 117.305C113.715 117.277 113.77 117.261 113.826 117.258C113.906 117.252 113.987 117.263 114.064 117.29L116.67 118.153L117.543 119.088C117.571 119.111 117.59 119.143 117.597 119.179C117.603 119.214 117.597 119.251 117.58 119.283C117.523 119.375 117.453 119.458 117.374 119.532L117.287 119.622C117.263 119.65 117.247 119.683 117.24 119.719C117.239 119.726 117.239 119.733 117.239 119.739C117.239 119.749 117.241 119.759 117.244 119.768C117.249 119.784 117.258 119.798 117.269 119.81C117.296 119.837 117.33 119.857 117.367 119.867C117.382 119.877 117.399 119.882 117.417 119.882C117.435 119.882 117.452 119.877 117.468 119.867L118.847 118.572C118.859 118.559 118.868 118.543 118.872 118.526C118.876 118.509 118.875 118.491 118.868 118.474C118.857 118.436 118.839 118.401 118.814 118.369C118.803 118.356 118.79 118.345 118.774 118.337C118.758 118.33 118.741 118.326 118.724 118.326C118.684 118.34 118.648 118.361 118.616 118.387L118.511 118.474C118.455 118.526 118.394 118.573 118.33 118.615C118.284 118.646 118.231 118.665 118.175 118.669C118.115 118.665 118.06 118.638 118.02 118.593L117.099 117.608L116.443 115.081C116.426 115.001 116.426 114.919 116.443 114.839C116.451 114.782 116.472 114.728 116.504 114.68C116.542 114.624 116.584 114.571 116.63 114.521C116.656 114.499 116.674 114.468 116.681 114.435C116.684 114.413 116.666 114.384 116.634 114.348Z" fill="white"/>
<path fill-rule="evenodd" clip-rule="evenodd" d="M71.1229 45.4072C72.1245 45.7136 73.1695 45.8538 74.2164 45.8223C75.2577 45.8527 76.2974 45.7224 77.299 45.4361C77.4035 45.4043 77.495 45.3398 77.56 45.2521C77.625 45.1643 77.66 45.058 77.66 44.9488C77.6591 44.8419 77.6233 44.7383 77.5582 44.6536C77.493 44.5689 77.402 44.5078 77.299 44.4795C76.2973 44.2163 75.2621 44.1031 74.2272 44.1438C73.1949 44.1235 72.1638 44.2253 71.1554 44.447C71.0512 44.4747 70.9587 44.5351 70.8915 44.6194C70.8244 44.7037 70.7862 44.8073 70.7825 44.9151C70.7789 45.0228 70.81 45.1288 70.8713 45.2174C70.9326 45.3061 71.0208 45.3726 71.1229 45.4072ZM74.2164 44.5662H74.3247C75.281 44.5396 76.2363 44.649 77.1618 44.891C77.1777 44.8951 77.1917 44.9045 77.2016 44.9176C77.2114 44.9307 77.2165 44.9468 77.216 44.9632C77.2165 44.9805 77.211 44.9975 77.2005 45.0113C77.19 45.0251 77.1751 45.0349 77.1582 45.039C76.1971 45.3101 75.2 45.4318 74.2019 45.4C73.2016 45.4308 72.203 45.2979 71.2456 45.0065C71.2281 45.0023 71.2127 44.992 71.2021 44.9774C71.1916 44.9629 71.1865 44.9451 71.1879 44.9271C71.1868 44.9105 71.1923 44.894 71.203 44.8813C71.2138 44.8685 71.229 44.8604 71.2456 44.8585C72.2207 44.6431 73.218 44.5449 74.2164 44.5662Z" fill="white"/>
<path fill-rule="evenodd" clip-rule="evenodd" d="M73.2779 104.884H72.5776C64.9143 104.822 63.3766 104.194 63.0806 103.898C62.633 103.588 53.7315 97.2926 50.7788 89.7015C46.5772 80.172 48.1185 71.4438 55.7746 61.4125C55.7999 61.3692 59.5539 55.3844 69.4913 48.4394C69.6692 48.3169 69.8132 48.1514 69.9098 47.9582C70.0064 47.7651 70.0524 47.5506 70.0436 47.3348L69.957 45.1185C69.9471 44.8627 70.0149 44.6099 70.1515 44.3934C70.2881 44.1769 70.4871 44.0068 70.7222 43.9056C71.9362 43.4301 73.2346 43.2078 74.5377 43.2523C75.5324 43.205 76.5267 43.3521 77.4651 43.6855C77.6832 43.7879 77.8672 43.951 77.9952 44.1551C78.1233 44.3593 78.1898 44.596 78.187 44.8369V47.1219C78.1838 47.3353 78.234 47.5461 78.333 47.7352C78.4319 47.9243 78.5766 48.0857 78.7538 48.2048C81.7137 50.1865 96.6722 60.7086 100.285 73.1656C103.534 84.8537 99.6573 95.217 89.1207 103.126C88.175 103.664 81.7317 104.884 73.2779 104.884ZM100.577 85.3153C99.0054 81.7134 96.117 78.8413 92.4958 77.2917L74.1695 69.4226C70.3017 67.8112 67.1573 64.8402 65.3295 61.0699C65.2176 60.8352 65.1129 60.597 65.0118 60.3479C64.7294 59.6681 64.4734 58.9976 64.2276 58.3541C63.66 56.8676 63.1472 55.5247 62.4912 54.5424C64.4001 52.7923 66.7877 50.8269 69.7188 48.7751C69.9535 48.6112 70.1428 48.3905 70.2691 48.1336C70.3953 47.8766 70.4544 47.5919 70.4407 47.3059L70.3541 45.0932C70.3484 44.9221 70.3942 44.7532 70.4856 44.6084C70.577 44.4636 70.7097 44.3496 70.8666 44.281C72.0274 43.8303 73.268 43.6215 74.5124 43.6674C76.0501 43.6674 76.8587 43.8804 77.2666 44.0609C77.414 44.1268 77.5389 44.2344 77.6261 44.3703C77.7133 44.5062 77.7589 44.6646 77.7575 44.8261V47.1182C77.7565 47.3981 77.8249 47.6738 77.9565 47.9207C78.0882 48.1677 78.279 48.3781 78.5119 48.5332C81.461 50.5186 96.2968 60.9469 99.8703 73.2594C101.036 77.4701 101.264 81.5071 100.577 85.3153ZM86.28 96.6323C86.4011 96.6241 86.5217 96.6085 86.6409 96.5854C86.7187 96.5648 86.7052 96.55 86.6894 96.5328C86.6803 96.5228 86.6704 96.512 86.677 96.4988C86.6951 96.4627 86.6662 96.4266 86.5904 96.3833C86.4747 96.3425 86.3517 96.3266 86.2294 96.3363C85.7868 96.3361 85.345 96.2999 84.9083 96.228C84.7314 96.1955 84.4607 96.1522 84.3055 96.1306C84.0415 96.0887 83.7818 96.0235 83.5294 95.9357C82.56 95.6334 81.6131 95.263 80.6958 94.8275C80.3385 94.6614 79.9125 94.4665 79.7393 94.3943C79.566 94.3221 79.2664 94.1814 79.0751 94.0839C78.7775 93.9519 78.5153 93.7515 78.3098 93.4991C78.1244 93.3105 78.0075 93.0653 77.9777 92.8025C78.0071 92.5415 78.0778 92.2868 78.1871 92.048C78.281 91.8603 78.3965 91.734 78.8802 91.2936C79.2628 90.9232 79.6244 90.5315 79.9631 90.1205C80.1279 89.9097 80.2662 89.6793 80.3746 89.4346C80.5122 89.2123 80.611 88.9682 80.6669 88.7127C80.851 87.8356 80.8655 86.9295 80.6958 86.6913C80.625 86.6099 80.5293 86.5542 80.4236 86.5327C80.3179 86.5111 80.2081 86.525 80.1111 86.5722C79.7474 86.7538 79.4187 86.9982 79.1401 87.2941C78.8421 87.6356 78.5684 87.9975 78.3207 88.377C78.2412 88.4961 78.068 88.8029 77.938 89.0629C77.8066 89.2703 77.7114 89.4985 77.6565 89.7379C77.6075 90.1515 77.6075 90.5695 77.6565 90.9832C77.7176 91.3755 77.7176 91.7749 77.6565 92.1672C77.6204 92.3873 77.5843 92.64 77.5843 92.7267V92.7592C77.494 92.6003 77.3352 92.2863 77.2558 92.1094C77.0295 91.5082 76.8604 90.887 76.7505 90.254C76.6798 90.0186 76.6798 89.7676 76.7505 89.5321C76.8352 89.2401 76.9565 88.9599 77.1114 88.6983C77.3553 88.2573 77.5479 87.7898 77.6854 87.3049C77.8911 86.6047 77.8875 86.204 77.6854 85.0561C77.6026 84.5465 77.4634 84.0477 77.2702 83.5689C77.0464 83.0275 76.8443 82.8326 76.5844 82.8975C76.3245 82.9625 76.144 83.1646 75.8841 83.6844C75.5507 84.3818 75.329 85.1273 75.2272 85.8936C75.0895 86.5293 75.1448 87.1917 75.386 87.7959C75.5146 88.0619 75.6593 88.3198 75.8192 88.5683C76.0033 88.8824 76.1837 89.1964 76.2271 89.2903C76.366 89.7194 76.465 90.1604 76.523 90.6078C76.5664 90.8532 76.6205 91.1456 76.6458 91.2575V91.3008C76.496 91.1083 76.3306 90.9284 76.1512 90.763C75.8697 90.5067 75.7794 90.3659 75.3968 89.6007C74.6316 88.0702 74.1948 87.5865 72.9206 86.8862C72.5691 86.6455 72.1518 86.5194 71.7258 86.5253C71.6562 86.5256 71.5876 86.5417 71.5251 86.5724C71.4626 86.603 71.4078 86.6474 71.3648 86.7021C71.3158 86.7977 71.2887 86.9031 71.2856 87.0105C71.2825 87.1179 71.3034 87.2247 71.3468 87.323C71.6941 88.1906 72.222 88.9743 72.8953 89.6223C73.3049 90.0166 73.8099 90.2978 74.3608 90.4381C74.4944 90.4706 74.6965 90.5248 74.8121 90.5609L75.3932 90.7161C75.5455 90.7474 75.6933 90.7971 75.8336 90.8641C76.1087 91.1043 76.3591 91.3716 76.5808 91.6618C76.801 91.9578 76.8587 92.0805 77.1836 92.9613L77.2883 93.2465L77.1042 93.1598C76.5064 92.8598 75.9256 92.5272 75.3643 92.1636C74.1804 91.3694 72.787 90.384 71.7294 89.5646C71.2601 89.2 71.2349 89.1784 71.0905 88.9762C70.7989 88.576 70.5565 88.1421 70.3686 87.6839C70.2711 87.5221 70.2246 87.3347 70.235 87.1461C70.2431 86.7088 70.3401 86.2777 70.5202 85.8791C70.6357 85.6878 70.7259 85.6084 71.3937 85.1103C71.7336 84.8965 72.0391 84.6324 72.2997 84.327C72.5319 83.9722 72.7141 83.5872 72.8412 83.1827C72.8749 83.0617 72.8607 82.9324 72.8015 82.8217C72.7694 82.7681 72.7176 82.7292 72.6571 82.7134C72.4405 82.6629 72.0868 82.8795 71.4081 83.4859C71.0416 83.7589 70.7295 84.098 70.4877 84.4858C70.3642 84.788 70.2852 85.1066 70.2531 85.4315C70.2323 85.7099 70.179 85.9849 70.0942 86.2509C70.0618 86.3601 70.0352 86.4709 70.0148 86.583C69.8545 85.7887 69.7939 84.9775 69.8343 84.1681C69.8524 83.8108 69.856 83.7927 69.9137 83.7097C70.1257 83.4246 70.3677 83.1632 70.6357 82.93C70.9786 82.6376 71.0219 82.6232 71.7438 82.5113C72.2568 82.4303 72.748 82.2461 73.1877 81.9698C73.5154 81.6661 73.776 81.2972 73.953 80.8869C74.1154 80.5621 74.1623 80.3996 74.0757 80.2914C73.9891 80.1831 73.8591 80.2047 73.0144 80.4863C72.0434 80.8075 71.8521 80.9122 71.4623 81.349C71.2506 81.5762 71.0709 81.8313 70.9281 82.107L70.7367 82.4499L70.4805 82.6665C70.3396 82.7864 70.2092 82.918 70.0906 83.06C70.0358 83.1342 69.9742 83.203 69.9065 83.2657C69.9078 83.2439 69.9127 83.2153 69.9185 83.1815C69.9291 83.1201 69.9426 83.0413 69.9426 82.9553C70.0632 82.1134 70.2775 81.2877 70.5815 80.4935C70.9236 79.9453 71.3163 79.4305 71.7547 78.9558C72.1059 78.6027 72.3628 78.167 72.5019 77.6888C72.5885 77.4217 72.9495 75.772 73.0108 75.3678C73.0722 74.9635 73.0505 74.783 72.9242 74.6747C72.8719 74.6385 72.811 74.6168 72.7476 74.6117C72.6842 74.6067 72.6206 74.6184 72.5632 74.6458C72.2167 74.7469 71.7547 75.1945 71.2277 75.9164C71.0195 76.1788 70.8672 76.481 70.7801 76.8044C70.6095 77.3728 70.535 77.9658 70.5599 78.5587C70.5532 78.7992 70.5383 79.0397 70.5278 79.2082C70.5213 79.3128 70.5166 79.3896 70.5166 79.4214C70.4608 79.7397 70.37 80.0508 70.2458 80.3491C69.9269 81.0644 69.6919 81.8142 69.5456 82.5835C69.4986 82.8831 69.4264 83.5798 69.4012 83.9913C69.3831 84.0923 69.3831 84.1754 69.3831 84.2295L69.3362 84.1717C69.1668 83.8501 69.036 83.5097 68.9464 83.1574C68.8113 82.6567 68.6213 82.1724 68.3796 81.7136C68.1172 81.2482 67.7637 80.8406 67.34 80.5151C66.879 80.1482 66.343 79.887 65.7698 79.7499C65.7147 79.75 65.6603 79.7628 65.6109 79.7872C65.5615 79.8116 65.5183 79.847 65.4847 79.8907C65.38 80.1 65.7229 81.0205 66.0297 81.5078C66.3366 81.9951 66.7264 82.3561 67.6974 83.078C68.0266 83.2906 68.3295 83.5414 68.5998 83.8252C68.8298 84.1199 69.0214 84.4425 69.1702 84.7854C69.2793 84.9514 69.3531 85.1382 69.3867 85.3341C69.3939 85.5831 69.4842 86.3628 69.5492 86.7238C69.6093 87.1045 69.6949 87.4808 69.8055 87.85L69.8596 88.016L69.6972 87.8753C69.3578 87.5757 68.7911 87.0486 68.3255 86.601C67.0693 85.3882 65.5099 83.8397 65.2861 83.5834C65.1059 83.3287 64.9613 83.0506 64.8566 82.7568C64.6308 82.0138 64.5511 81.2342 64.622 80.461C64.7026 79.9157 64.6417 79.3589 64.4451 78.8439C64.2285 78.3493 64.0553 78.1219 63.8675 78.0281C63.6798 77.9342 63.6077 77.9631 63.5066 78.1653C63.3078 78.6569 63.2406 79.1919 63.3117 79.7174C63.3562 80.0464 63.4324 80.3704 63.5391 80.6848C63.6762 81.0674 64.0047 81.8652 64.2141 82.3308L64.3079 82.5402C63.9975 82.1936 63.3441 81.432 63.3008 81.3634C63.2575 81.2948 63.1673 81.1252 63.1059 81.0025C63.0846 80.9599 63.0559 80.9016 63.0235 80.8357C62.9625 80.7118 62.8879 80.5604 62.8244 80.4357V80.4141C62.6534 80.1072 62.5224 79.7796 62.4345 79.4395C62.2387 78.8184 62.2642 78.1487 62.5067 77.5444C62.6562 77.2868 62.8436 77.0532 63.0626 76.8513C63.6762 76.2377 63.8892 75.92 63.9831 75.5158C64.084 75.1889 64.084 74.8391 63.9831 74.5123C63.954 74.4612 63.9089 74.4211 63.8547 74.3983C63.8005 74.3754 63.7403 74.3711 63.6835 74.3859C63.579 74.4264 63.506 74.5046 63.2031 74.829L63.1348 74.9021L62.68 75.4075C62.5576 75.5334 62.4586 75.6801 62.3876 75.8406C62.2915 75.9957 62.2333 76.1714 62.2179 76.3532C62.1999 76.4831 62.171 76.808 62.171 77.0751C62.1721 77.2597 62.1613 77.4442 62.1385 77.6274C62.1132 77.7249 62.0338 78.2627 62.0338 78.519C61.8281 77.9848 61.0412 75.5266 61.0412 75.2956V74.2127C61.0701 73.386 61.0267 73.0864 60.839 72.7471C60.672 72.4558 60.4786 72.1803 60.2615 71.9241C60.1488 71.797 60.0023 71.7043 59.8392 71.657C59.6117 71.6642 59.6117 72.0324 59.6117 72.3537C59.6226 73.1911 59.702 73.451 60.211 74.3462C60.4131 74.7036 60.6261 75.097 60.6838 75.2198C60.8783 75.6602 61.0341 76.1168 61.1495 76.5842L61.1571 76.6142C61.2178 76.8537 61.2997 77.1763 61.3516 77.3495L61.3733 77.4361L61.3408 77.3856C61.0799 76.9997 60.847 76.5956 60.6441 76.1763C60.4603 75.7287 60.1821 75.3261 59.8283 74.996C59.6033 74.854 59.3606 74.7423 59.1064 74.6639C58.9006 74.6242 58.8176 74.7036 58.7887 74.7541C58.7129 74.8805 58.7707 75.0862 58.944 75.31C59.3014 75.7183 59.7218 76.0668 60.1893 76.3424C60.2965 76.4077 60.4001 76.4788 60.4997 76.5553C60.9081 77.0696 61.2659 77.622 61.5682 78.205C61.702 78.4455 61.8097 78.6996 61.8895 78.963C62.0567 79.4535 62.2483 79.9354 62.4634 80.4069V80.4285C62.0014 79.9015 61.3336 79.111 61.3047 79.0677C61.2758 79.0244 61.1928 78.8583 60.9148 78.205C60.8561 78.0641 60.7848 77.9288 60.7019 77.8007C60.421 77.4378 60.0467 77.1583 59.619 76.9921C59.2869 76.8622 58.6768 76.7539 58.6119 76.8441C58.5469 76.9344 58.6046 77.0282 58.7671 77.2376C59.1707 77.7303 59.6523 78.1534 60.1929 78.4901C60.6742 78.797 61.0961 79.1883 61.4382 79.6452L61.5213 79.7499C61.1053 79.5207 60.6775 79.3135 60.2398 79.129C59.8487 78.9703 59.4719 78.7783 59.1136 78.5551C58.3917 78.0894 58.1029 77.9523 57.6697 77.8909C57.2621 77.8251 56.8451 77.846 56.4461 77.9523C56.3342 77.992 56.262 78.0497 56.262 78.1183C56.2592 78.1535 56.2653 78.1889 56.2798 78.221C56.2943 78.2532 56.3168 78.2812 56.345 78.3024C56.6549 78.5001 56.9853 78.6635 57.3304 78.7897C57.8409 78.9915 58.3812 79.1074 58.9295 79.1326C59.3083 79.1577 59.6828 79.228 60.0449 79.342C60.3566 79.4326 60.6561 79.5611 60.9365 79.7246C61.3617 79.903 61.747 80.1644 62.0699 80.4935C62.2973 80.7137 62.5825 81.0422 63.586 82.2586C64.3946 83.2368 65.2031 84.1393 65.9973 84.9478C66.121 85.0716 66.2209 85.1768 66.2924 85.2521L66.3257 85.2871L66.1489 85.233C65.9901 85.1823 65.6858 85.1032 65.4314 85.037L65.38 85.0236C65.1165 84.955 64.8927 84.8901 64.8566 84.872C64.5866 84.6721 64.3523 84.428 64.1635 84.1501C63.8211 83.6467 63.3921 83.208 62.8965 82.8542C62.5 82.6932 62.0788 82.6017 61.6512 82.5835C61.2541 82.5691 60.9762 82.6954 60.9293 82.9084C60.9247 82.9873 60.9361 83.0663 60.9628 83.1407C60.9895 83.2152 61.0308 83.2834 61.0845 83.3415C61.391 83.6241 61.7247 83.8756 62.0808 84.0923C62.3832 84.2911 62.7006 84.4661 63.0301 84.6157L63.5174 84.8431H63.0843L62.7233 84.8612C62.3263 84.8687 61.9299 84.8275 61.5429 84.7385C61.2396 84.6716 60.9294 84.6413 60.6188 84.6482C59.7191 84.8416 58.8625 85.1989 58.0921 85.7022C57.8466 85.8791 57.7455 85.9838 57.7925 86.1318C57.8177 86.2112 57.8538 86.2329 57.9946 86.2906C58.6596 86.4739 59.363 86.4651 60.0232 86.2654C60.5757 86.1255 61.0989 85.8884 61.5682 85.5651C62.1133 85.1969 62.1746 85.168 62.4453 85.168C62.5843 85.1638 62.7229 85.1517 62.8604 85.1319C63.0084 85.0994 63.1853 85.0994 63.2575 85.0994H63.6185C63.3916 85.1936 63.1809 85.3227 62.994 85.4821L62.8099 85.6337C62.78 85.654 62.745 85.6653 62.7088 85.6661C62.4684 85.701 62.234 85.7691 62.0122 85.8683C61.8103 85.965 61.6299 86.1013 61.4816 86.269C61.0881 86.6913 60.4781 87.7381 60.5503 87.8825C60.6225 88.0269 60.7199 87.9944 61.2722 87.8103C62.4634 87.4204 62.9146 87.1569 63.1312 86.7274C63.2022 86.6058 63.2412 86.4681 63.2443 86.3272C63.2475 86.1864 63.2147 86.0471 63.1492 85.9224C63.1023 85.8575 63.1023 85.8069 63.1023 85.8069C63.3025 85.6304 63.526 85.4823 63.7665 85.3665C64.1708 85.2113 64.409 85.2185 65.2717 85.4099C65.7748 85.4888 66.2622 85.6472 66.7156 85.8791L67.0946 86.0704L67.701 86.6877C68.4049 87.4096 68.9283 87.915 69.5672 88.4925C69.6298 88.5522 69.6882 88.6071 69.7407 88.6564C69.8183 88.7295 69.8829 88.7902 69.9282 88.8354C69.7952 88.8188 69.6615 88.8092 69.5275 88.8066C68.9761 88.7816 68.429 88.6969 67.8959 88.5539C67.5311 88.4424 67.1512 88.3877 66.7697 88.3914H66.7445C65.8377 88.426 64.9458 88.633 64.1166 89.0015C63.7458 89.1574 63.4105 89.387 63.1312 89.6765C63.0995 89.7202 63.0773 89.7702 63.0661 89.823C63.055 89.8759 63.055 89.9305 63.0662 89.9833C63.08 90.0346 63.1049 90.0823 63.1392 90.1228C63.1736 90.1634 63.2164 90.1958 63.2647 90.2179C63.5292 90.3206 63.8081 90.3815 64.0913 90.3984C65.1974 90.5349 66.3198 90.3703 67.34 89.9219C67.47 89.8497 67.7371 89.6873 67.932 89.561C68.2037 89.3572 68.5128 89.2088 68.8417 89.1242C69.401 89.1364 69.9546 89.24 70.4805 89.431L70.7548 89.5249L71.4081 90.0411C72.6463 91.0265 74.4908 92.3476 75.4329 92.9288L75.4726 92.9541C75.172 92.939 74.8708 92.939 74.5702 92.9541H74.4114C73.9787 92.9671 73.5472 93.0057 73.1191 93.0696C72.6463 93.1802 72.1589 93.2143 71.6753 93.1706C71.2666 93.1365 70.8626 93.0603 70.4696 92.9432C70.2652 92.863 70.0694 92.7627 69.8849 92.6436C69.4235 92.3512 68.9057 92.1593 68.3652 92.0805C67.8633 92.0473 67.36 92.1211 66.8888 92.2971C66.2752 92.4956 66.0153 92.64 65.9142 92.8349C65.87 92.9031 65.8536 92.9856 65.8684 93.0655C65.8831 93.1454 65.928 93.2166 65.9936 93.2645C66.268 93.6182 67.1523 93.7879 68.1919 93.6868C68.6623 93.6321 69.128 93.5428 69.5853 93.4197C69.9698 93.2783 70.3892 93.2618 70.7837 93.3728C70.9969 93.4199 71.2126 93.4549 71.4298 93.4775C71.0977 93.5136 70.6826 93.5605 70.4913 93.5894C69.6748 93.7319 68.8832 93.9921 68.1414 94.3618L68.0223 94.4196C67.6934 94.5283 67.355 94.6056 67.0116 94.6506C66.751 94.6868 66.5072 94.7999 66.3113 94.9755L66.1561 95.0946C65.7576 95.3771 65.4098 95.7249 65.1273 96.1234C65.0155 96.2746 64.895 96.4192 64.7664 96.5565C64.7108 96.6178 64.6612 96.6843 64.6184 96.7551C64.3729 97.1557 64.2466 97.394 64.3729 97.726L64.3789 97.741L64.388 97.7621C64.4036 97.7981 64.4198 97.8354 64.4198 97.8704L64.4225 97.8786C64.4794 98.053 64.5386 98.2345 64.7483 98.2025C65.4661 98.1243 66.1321 97.7913 66.6253 97.264L66.6686 97.2171C66.8848 97.0136 67.0568 96.7679 67.174 96.4952V96.4627C67.2785 96.261 67.369 96.0523 67.4447 95.8382C67.7139 94.9984 68.0687 94.7937 68.2573 94.685L68.2605 94.6831C68.9265 94.3875 69.6207 94.1602 70.3325 94.0045L70.744 93.9539C71.3089 93.894 71.8656 93.7729 72.4044 93.593H72.4441C72.3486 93.6841 72.2582 93.7805 72.1734 93.8818C71.5864 94.6009 70.915 95.2469 70.1736 95.8057C69.9209 95.9207 69.6538 96.0009 69.3795 96.044C69.0285 96.086 68.6923 96.2096 68.3977 96.4049C68.1296 96.6011 67.924 96.8706 67.8057 97.181C67.5782 97.6975 67.4286 98.2449 67.3617 98.8053C67.3148 99.206 67.3256 99.4118 67.5133 99.5092C67.636 99.5706 67.7624 99.5417 68.0151 99.3973C68.4521 99.1085 68.8716 98.7939 69.2712 98.4552C69.5125 98.2577 69.7187 98.021 69.8813 97.7549C70.0918 97.414 70.2374 97.0371 70.3108 96.6431C70.3427 96.4904 70.3837 96.3398 70.4335 96.1919C70.479 96.1202 70.5336 96.0547 70.596 95.997C70.679 95.9357 70.8342 95.7696 70.9569 95.6361L70.9956 95.5952C71.2367 95.3405 71.4542 95.1106 71.5742 95.0044C71.4545 95.4239 71.2849 95.8274 71.0688 96.2064C70.909 96.4716 70.7817 96.7553 70.6898 97.051C70.5798 97.992 70.744 98.9446 71.1627 99.7944C71.3323 100.173 71.4515 100.347 71.5886 100.415C71.6388 100.442 71.6942 100.458 71.7511 100.462C71.8991 100.462 71.9965 100.325 72.112 100.101C72.2314 99.8768 72.3073 99.6319 72.3358 99.3793C72.3611 99.1916 72.4369 97.8235 72.4369 97.6142C72.4067 97.0838 72.1787 96.584 71.798 96.2136L71.7942 96.2098C71.5849 96.0005 71.575 95.9906 71.7041 95.5133C71.753 95.2201 71.8532 94.9379 72.0001 94.6795L72.0471 94.6001C72.256 94.2137 72.5707 93.8949 72.9542 93.6807C73.3377 93.4666 73.7743 93.366 74.2129 93.3908C74.6722 93.3756 75.1319 93.4082 75.5845 93.4883C75.9127 93.5433 76.237 93.6193 76.5555 93.7157C76.8254 93.7959 77.0812 93.9177 77.3136 94.0767L78.2376 94.5892L78.5986 94.7878C78.4102 94.8529 78.2187 94.9083 78.0247 94.9538C77.731 94.9901 77.434 94.9901 77.1403 94.9538C76.7058 94.8836 76.2615 94.9041 75.8353 95.014C75.4091 95.124 75.0103 95.321 74.6641 95.5927C74.3183 95.8504 73.998 96.1404 73.7075 96.4591C73.45 96.7023 73.2363 96.988 73.0758 97.3037C73.0458 97.363 73.0212 97.4083 73.0015 97.4448C72.9334 97.5706 72.9227 97.5905 72.9423 97.708C72.9675 97.8596 73.0758 97.9499 73.3032 98.0148C73.6931 98.1231 73.9927 98.0798 74.8373 97.7982C75.306 97.6522 75.7613 97.4662 76.1982 97.2424C76.8845 96.7962 77.5115 96.265 78.0644 95.6613C78.1572 95.5638 78.2614 95.4777 78.3748 95.405C78.624 95.2728 78.9013 95.2023 79.1834 95.1993H79.4108L80.1327 95.5602C80.7266 95.8706 81.3418 96.1384 81.9736 96.3616C83.4464 96.903 84.4607 97.1954 84.8614 97.1954H84.9047C85.1465 97.1774 85.2945 97.1124 85.327 97.0186C85.3595 96.9247 85.3126 96.8994 85.2115 96.8489L85.0094 96.7587L85.4209 96.7153L86.28 96.6323Z" fill="white"/>
<path d="M24.6053 110.064C24.4172 109.812 24.2257 109.563 24.0343 109.313C23.5976 108.745 23.1609 108.176 22.7644 107.577L21.8764 106.299L21.0498 104.985C20.7037 104.447 20.3894 103.884 20.0769 103.324C19.8842 102.979 19.6923 102.635 19.4941 102.299C19.3711 102.072 19.2526 101.841 19.1337 101.609C19.0153 101.379 18.8964 101.147 18.7721 100.917C18.5231 100.455 18.3029 99.9964 18.0935 99.5236L17.4438 98.1086C17.2971 97.7829 17.1658 97.452 17.0334 97.1184C16.9736 96.9676 16.9136 96.8163 16.8518 96.6647C16.5765 96.0216 16.344 95.3637 16.1109 94.7044C15.9987 94.3868 15.8862 94.0684 15.7689 93.7517C15.1083 91.792 14.5505 89.7992 14.0976 87.7813C13.6485 85.7545 13.3015 83.7065 13.058 81.6449C12.8296 79.583 12.7091 77.5107 12.6971 75.4362C12.656 71.3794 13.08 67.3314 13.9605 63.3716C13.2355 63.8509 12.0268 63.9201 11.2061 63.7987C12.4929 63.1897 13.5934 62.2475 14.3934 61.0698C14.6785 62.4595 15.5232 63.6652 16.4401 64.73C15.5666 64.5062 14.5342 64.0984 13.9856 63.3548C13.4743 67.3493 13.2981 71.3796 13.4587 75.4037C13.7698 83.6007 15.583 91.6709 18.8082 99.2131C20.4378 102.984 22.3768 106.613 24.6053 110.064Z" fill="white"/>
<path d="M135.855 63.1235C136.772 67.16 137.215 71.2898 137.173 75.4289C137.161 77.5033 137.04 79.5757 136.812 81.6375C136.57 83.6994 136.223 85.7475 135.772 87.7739C135.319 89.7986 134.757 91.7976 134.09 93.7624C133.974 94.0761 133.861 94.3909 133.748 94.7054C133.511 95.3679 133.274 96.0293 133.007 96.6754C132.933 96.8544 132.861 97.034 132.789 97.2137C132.668 97.5158 132.546 97.8182 132.415 98.1192L131.765 99.5342C131.576 99.9622 131.363 100.381 131.15 100.8L131.083 100.931C131.044 101.008 131.005 101.085 130.966 101.162C130.772 101.547 130.578 101.931 130.361 102.31C130.191 102.605 130.025 102.9 129.86 103.195C129.52 103.8 129.182 104.403 128.806 104.996L128.001 106.299L127.127 107.577C126.733 108.172 126.298 108.739 125.864 109.303C125.719 109.492 125.574 109.681 125.431 109.87C126.282 109.737 127.424 110.2 128.117 110.667C126.694 110.658 125.295 111.032 124.067 111.75C124.406 110.371 124.164 108.92 123.796 107.566C124.479 108.152 125.235 108.961 125.415 109.864C127.588 106.473 129.483 102.911 131.08 99.213C134.299 91.6717 136.11 83.6045 136.422 75.4108C136.585 71.3064 136.395 67.1956 135.855 63.1235Z" fill="white"/>
<path fill-rule="evenodd" clip-rule="evenodd" d="M74.9383 148.063C57.8665 148.052 41.3233 142.14 28.1109 131.329C14.8986 120.518 5.82941 105.472 2.4397 88.7401C-0.950012 72.0082 1.54813 54.6189 9.51095 39.5179C17.4738 24.4169 30.4117 12.5326 46.1332 5.87805C61.9525 -0.833941 79.6146 -1.831 96.0887 3.05798C112.563 7.94696 126.822 18.4171 136.419 32.6718C146.016 46.9265 150.353 64.077 148.685 81.1802C147.017 98.2833 139.449 114.273 127.279 126.405C120.412 133.285 112.252 138.741 103.27 142.458C94.2877 146.174 84.6593 148.079 74.9383 148.063ZM74.9383 0.968903C34.6364 0.972513 1.84616 33.7627 1.84616 74.0647C1.84616 114.367 34.6364 147.164 74.9383 147.164C115.24 147.164 148.034 114.374 148.034 74.0683C148.034 33.7627 115.248 0.972513 74.9383 0.972513V0.968903Z" fill="white"/>
</svg>
