<svg width="48" height="48" viewBox="0 0 48 48" fill="none" xmlns="http://www.w3.org/2000/svg">
<path fill-rule="evenodd" clip-rule="evenodd" d="M19.3569 12.2353C18.3281 11.2852 16.68 11.9208 16.6314 13.2865C16.5671 15.0924 16.8888 16.9397 17.643 18.7214C18.1191 19.8463 18.7383 20.8759 19.4728 21.7986C19.4786 21.8058 19.4808 21.8119 19.4814 21.8197C19.4823 21.8294 19.4804 21.8429 19.4738 21.8566C19.4673 21.8703 19.4595 21.8772 19.4562 21.8794L19.4559 21.8796C19.455 21.8802 19.4542 21.8809 19.4489 21.881C17.5227 21.9267 15.7661 22.1118 14.4869 22.8153C13.8319 23.1755 13.3002 23.6718 12.9376 24.3439C12.5778 25.0107 12.4 25.8213 12.4 26.7916C12.4 32.1388 17.7283 36.3361 24.1081 36.3361C30.4878 36.3361 35.8161 32.1388 35.8161 26.7916C35.8161 25.8067 35.6329 24.9864 35.2623 24.3141C34.8887 23.6365 34.3419 23.1405 33.6705 22.7835C32.3601 22.0867 30.561 21.9152 28.5907 21.8772C28.5857 21.8771 28.585 21.8765 28.5843 21.876C28.5842 21.876 28.5841 21.8759 28.584 21.8758C28.581 21.8738 28.5733 21.8671 28.5668 21.8535C28.5602 21.8399 28.5583 21.8265 28.5592 21.8168C28.5598 21.8091 28.562 21.803 28.5677 21.7958C29.3012 20.8739 29.9197 19.8452 30.3953 18.7215C31.1495 16.9397 31.4712 15.0924 31.4069 13.2865C31.3583 11.9208 29.7102 11.2852 28.6814 12.2354C27.3209 13.4918 26.208 15.034 25.4538 16.8157C24.7499 18.4789 24.4227 20.1993 24.4345 21.8898C24.3261 21.8902 24.2172 21.8904 24.1081 21.8904C23.9392 21.8904 23.771 21.8899 23.6037 21.8891C23.6155 20.1989 23.2883 18.4787 22.5844 16.8157C21.8303 15.034 20.7174 13.4917 19.3569 12.2353ZM17.6974 13.321C17.7146 12.8374 18.2508 12.6306 18.6152 12.9671C19.8706 14.1264 20.8982 15.5499 21.5954 17.1971C22.2926 18.8443 22.5893 20.5497 22.53 22.216C22.5184 22.5418 22.7771 22.9019 23.2118 22.905C23.5071 22.9071 23.806 22.9085 24.1081 22.9085C24.349 22.9085 24.588 22.9076 24.8247 22.9062C25.2608 22.9035 25.5199 22.5423 25.5083 22.2161C25.449 20.5498 25.7456 18.8443 26.4428 17.1972C27.14 15.55 28.1677 14.1265 29.4231 12.9671C29.7875 12.6306 30.3237 12.8374 30.3409 13.3211C30.4002 14.9874 30.1035 16.6929 29.4063 18.3401C28.9665 19.3793 28.3951 20.3293 27.7183 21.18C27.1927 21.8405 27.6381 22.8772 28.5692 22.8952C30.5446 22.9333 32.0969 23.1123 33.1514 23.673C33.6626 23.9448 34.0516 24.3044 34.3183 24.7883C34.588 25.2774 34.7494 25.9243 34.7494 26.7916C34.7494 31.4246 30.0716 35.3179 24.1081 35.3179C18.1446 35.3179 13.4667 31.4246 13.4667 26.7916C13.4667 25.9371 13.6234 25.2965 13.8859 24.8101C14.1455 24.329 14.5237 23.9701 15.0193 23.6976C16.0415 23.1355 17.5492 22.9446 19.4755 22.8989C20.4037 22.8768 20.8475 21.8426 20.3221 21.1825C19.6443 20.3312 19.0723 19.3803 18.632 18.34C17.9348 16.6928 17.6381 14.9874 17.6974 13.321ZM26.8513 31.4901C26.9703 31.0839 26.6015 30.7359 26.1597 30.7359H21.893C21.4512 30.7359 21.0824 31.0839 21.2014 31.4901C21.233 31.5977 21.2713 31.7037 21.3163 31.8074C21.4637 32.1471 21.6798 32.4558 21.9522 32.7158C22.2246 32.9758 22.5479 33.182 22.9038 33.3227C23.2597 33.4635 23.6412 33.5359 24.0264 33.5359C24.4116 33.5359 24.793 33.4635 25.1489 33.3227C25.5048 33.182 25.8282 32.9758 26.1005 32.7158C26.3729 32.4558 26.589 32.1471 26.7364 31.8074C26.7814 31.7037 26.8197 31.5977 26.8513 31.4901Z" fill="#29180E"/>
<rect x="0.4" y="0.4" width="47.2" height="47.2" rx="23.6" stroke="#29180E" stroke-width="0.8"/>
</svg>
