<svg width="65" height="88" viewBox="0 0 65 88" fill="none" xmlns="http://www.w3.org/2000/svg">
<g clip-path="url(#clip0)">
<path d="M0.335205 53.8789V50.184H2.65154V50.8222H1.09614V51.6552H2.49064V52.2901H1.09614V53.2575H2.65154V53.8923L0.335205 53.8789Z" fill="#29180E"/>
<path d="M2.70518 57.2816L2.14202 57.6847C2.07041 57.5644 1.96874 57.4648 1.84703 57.3958C1.71178 57.3329 1.5636 57.303 1.4146 57.3085C1.27646 57.298 1.13898 57.336 1.02575 57.416C0.981757 57.4519 0.946734 57.4977 0.923459 57.5496C0.900184 57.6015 0.889298 57.6581 0.891664 57.7149C0.888458 57.7806 0.902195 57.846 0.931552 57.9049C0.960909 57.9637 1.0049 58.014 1.05927 58.0508C1.23225 58.1572 1.42307 58.2312 1.62243 58.2692C1.93761 58.3334 2.23226 58.4741 2.48058 58.679C2.57261 58.7754 2.64343 58.8901 2.68847 59.0156C2.73351 59.1412 2.75176 59.2748 2.74205 59.4079C2.74758 59.5561 2.7204 59.7037 2.66246 59.8401C2.60451 59.9766 2.51723 60.0985 2.40684 60.1973C2.13929 60.4072 1.80402 60.5112 1.46488 60.4895C1.19558 60.511 0.925082 60.4669 0.676439 60.3611C0.427795 60.2552 0.208373 60.0907 0.0368652 59.8815L0.610083 59.4851C0.699788 59.6027 0.814238 59.6991 0.945299 59.7673C1.08988 59.8306 1.24686 59.8605 1.40454 59.8546C1.78669 59.8546 1.97776 59.7169 1.97776 59.4415C1.9817 59.3764 1.96899 59.3114 1.94083 59.2526C1.91267 59.1938 1.87 59.1432 1.81686 59.1056C1.63426 58.9924 1.43354 58.9117 1.22353 58.8671C0.918362 58.8056 0.636303 58.6602 0.408954 58.4472C0.317935 58.3491 0.24734 58.2339 0.201295 58.1081C0.155249 57.9824 0.134677 57.8487 0.140782 57.7149C0.136695 57.5714 0.164672 57.4287 0.222669 57.2973C0.280666 57.166 0.367217 57.0493 0.475997 56.9558C0.745528 56.7505 1.08023 56.6503 1.41795 56.6736C1.66679 56.6537 1.9165 56.6993 2.14231 56.806C2.36811 56.9126 2.56216 57.0766 2.70518 57.2816V57.2816Z" fill="#29180E"/>
<path d="M0 63.9191V63.2775H2.78899V63.9191H1.78335V66.9859H1.00565V63.9191H0Z" fill="#29180E"/>
<path d="M62.8831 47.3624H64.1602V47.9939H61.8741V47.5102L63.111 46.049C63.3081 45.8526 63.4272 45.5912 63.4463 45.3134C63.4505 45.2512 63.441 45.1888 63.4184 45.1308C63.3958 45.0727 63.3606 45.0204 63.3155 44.9775C63.224 44.8946 63.1036 44.8511 62.9803 44.8565C62.9219 44.8546 62.8637 44.8643 62.809 44.8851C62.7543 44.9058 62.7043 44.9372 62.6619 44.9775C62.5727 45.0666 62.5222 45.1872 62.5211 45.3134H61.8506C61.8453 45.1677 61.8726 45.0226 61.9306 44.8889C61.9886 44.7552 62.0758 44.6362 62.1859 44.5408C62.4139 44.339 62.7097 44.2311 63.0138 44.2385C63.3213 44.2284 63.6202 44.3407 63.8452 44.5509C63.9533 44.6457 64.0393 44.7631 64.0973 44.8948C64.1552 45.0266 64.1835 45.1694 64.1804 45.3134C64.1799 45.4733 64.1456 45.6313 64.0798 45.7769C64.0262 45.9042 63.9599 46.0257 63.882 46.1397C63.8217 46.2237 63.7345 46.3312 63.6239 46.4756L62.8831 47.3624Z" fill="#29180E"/>
<path d="M64.2943 51.971V53.4086C64.3051 53.5737 64.2787 53.739 64.2172 53.8925C64.1557 54.046 64.0607 54.1837 63.939 54.2954C63.6883 54.5007 63.3707 54.6059 63.0473 54.591C62.7231 54.6042 62.4051 54.4992 62.1523 54.2954C62.0346 54.1815 61.9436 54.0429 61.8856 53.8896C61.8277 53.7363 61.8043 53.5721 61.8171 53.4086V51.9676C61.8018 51.8025 61.824 51.636 61.882 51.4806C61.9401 51.3253 62.0325 51.1852 62.1523 51.0707C62.4145 50.8848 62.7278 50.7849 63.049 50.7849C63.3702 50.7849 63.6835 50.8848 63.9457 51.0707C64.0688 51.184 64.1643 51.324 64.2247 51.4801C64.2852 51.6362 64.309 51.8042 64.2943 51.971V51.971ZM63.5434 53.3515V52.0415C63.5434 51.6317 63.3758 51.4268 63.0473 51.4268C62.7188 51.4268 62.5512 51.6317 62.5512 52.0415V53.3515C62.5512 53.7613 62.7155 53.9629 63.0473 53.9629C63.3792 53.9629 63.5434 53.7613 63.5434 53.3515Z" fill="#29180E"/>
<path d="M62.8764 57.3925H63.5468V61.0874H62.7959V58.165L62.2629 58.5009V57.7754L62.8764 57.3925Z" fill="#29180E"/>
<path d="M61.7869 66.6265C61.7856 66.4363 61.8417 66.2501 61.9478 66.0924C62.0439 65.9365 62.1838 65.8126 62.3501 65.7363C62.2003 65.6607 62.0748 65.5443 61.9881 65.4004C61.8986 65.2549 61.8511 65.0875 61.8506 64.9167C61.8464 64.7735 61.8764 64.6314 61.9382 64.5023C62.0001 64.3731 62.0919 64.2607 62.2059 64.1744C62.4553 63.9972 62.7534 63.902 63.0591 63.902C63.3647 63.902 63.6629 63.9972 63.9122 64.1744C64.0265 64.2603 64.1183 64.3727 64.1796 64.502C64.2409 64.6313 64.2699 64.7736 64.2642 64.9167C64.2639 65.0861 64.2172 65.2521 64.1291 65.3967C64.041 65.5412 63.9149 65.6587 63.7647 65.7363C63.9296 65.8117 64.0684 65.9345 64.1636 66.089C64.2667 66.249 64.3203 66.436 64.3178 66.6265C64.3241 66.7774 64.2946 66.9276 64.2317 67.0648C64.1687 67.2021 64.0742 67.3224 63.9558 67.4158C63.6946 67.6059 63.3802 67.7083 63.0574 67.7083C62.7346 67.7083 62.4202 67.6059 62.159 67.4158C62.0388 67.3234 61.9423 67.2036 61.8776 67.0663C61.8129 66.929 61.7818 66.7782 61.7869 66.6265V66.6265ZM62.5378 66.5559C62.5362 66.6938 62.5893 66.8267 62.6853 66.9254C62.7313 66.9754 62.7874 67.015 62.8498 67.0416C62.9122 67.0682 62.9795 67.0813 63.0473 67.0799C63.1156 67.0805 63.1832 67.0671 63.246 67.0406C63.3088 67.014 63.3656 66.9748 63.4127 66.9254C63.4614 66.8771 63.4998 66.8195 63.5257 66.7561C63.5516 66.6926 63.5645 66.6245 63.5636 66.5559C63.5618 66.4196 63.5068 66.2894 63.4102 66.1933C63.3137 66.0972 63.1834 66.0429 63.0473 66.042C62.9814 66.0387 62.9154 66.0487 62.8532 66.0711C62.7911 66.0936 62.734 66.1282 62.6853 66.173C62.6348 66.2225 62.5954 66.2823 62.57 66.3484C62.5445 66.4144 62.5336 66.4852 62.5378 66.5559V66.5559ZM62.5881 64.994C62.586 65.0562 62.5969 65.1182 62.62 65.176C62.6431 65.2338 62.6779 65.2862 62.7222 65.3299C62.7651 65.3754 62.8172 65.4112 62.875 65.435C62.9328 65.4587 62.995 65.4698 63.0574 65.4676C63.1198 65.4696 63.1819 65.4584 63.2397 65.4347C63.2975 65.4109 63.3496 65.3752 63.3926 65.3299C63.4375 65.2865 63.473 65.2343 63.4966 65.1764C63.5203 65.1186 63.5317 65.0565 63.5301 64.994C63.533 64.9313 63.5222 64.8688 63.4985 64.8108C63.4747 64.7527 63.4386 64.7006 63.3926 64.6581C63.3494 64.6131 63.2972 64.5779 63.2394 64.5548C63.1816 64.5316 63.1196 64.521 63.0574 64.5237C62.9952 64.5208 62.9331 64.5313 62.8752 64.5545C62.8174 64.5776 62.7652 64.613 62.7222 64.6581C62.6768 64.7009 62.6413 64.7532 62.6182 64.8112C62.595 64.8692 62.5847 64.9316 62.5881 64.994V64.994Z" fill="#29180E"/>
<path d="M1.49838 30.5403C1.3587 30.5258 1.22359 30.4822 1.10177 30.4122C0.979954 30.3422 0.874115 30.2474 0.791073 30.1339C0.704471 30.0228 0.64113 29.8953 0.604843 29.7591C0.568556 29.6229 0.560068 29.4807 0.579887 29.3412C0.594814 29.2018 0.638598 29.0671 0.70844 28.9456C0.778282 28.8241 0.872645 28.7186 0.985498 28.6358C1.09431 28.5487 1.21967 28.4847 1.35395 28.4478C1.48823 28.4108 1.62862 28.4016 1.76655 28.4208C1.90665 28.4368 2.04199 28.4815 2.16422 28.552C2.28644 28.6224 2.39296 28.7173 2.47721 28.8306C2.5643 28.9406 2.62748 29.0677 2.6627 29.2036C2.69791 29.3396 2.70438 29.4814 2.68169 29.62C2.66721 29.7599 2.62364 29.8953 2.55378 30.0174C2.48392 30.1394 2.38932 30.2455 2.27608 30.3287C2.16713 30.4143 2.04218 30.4771 1.90861 30.5134C1.77503 30.5498 1.63554 30.5589 1.49838 30.5403V30.5403Z" fill="#29180E"/>
<path d="M2.95663 20.2415L3.78461 20.6345L4.76679 18.5587L5.77244 19.039L4.79026 21.1115L6.54679 21.9513L6.15794 22.7709L1.56213 20.5808L3.06055 17.4267L4.06619 17.9036L2.95663 20.2415Z" fill="#29180E"/>
<path d="M4.83716 14.6185L5.36345 13.8762L9.52012 16.7952L8.99718 17.5375L4.83716 14.6185Z" fill="#29180E"/>
<path d="M11.3571 10.9068L14.3405 11.5248L13.5796 12.2705L11.4309 11.8675L11.3035 11.9917L11.6722 14.1482L10.8543 14.9511L10.2844 11.891L7.33789 11.2662L8.09548 10.5205L10.214 10.9336L10.3347 10.8127L9.96263 8.68309L10.7806 7.88028L11.3571 10.9068Z" fill="#29180E"/>
<path d="M17.0692 3.62777L18.2826 3.12056L20.428 4.92772L20.5755 4.86726L20.8068 2.06246L22.0572 1.53845L24.0182 6.2411L23.1835 6.5938L21.8728 3.45646L21.7253 3.52028L21.5543 6.20751L20.723 6.54341L18.7117 4.78328L18.5609 4.84374L19.8682 7.98108L19.0335 8.31698L17.0692 3.62777Z" fill="#29180E"/>
<path d="M27.7759 3.77556L25.3825 0.671807L26.4116 0.527369L27.9368 2.43194L28.091 2.41179L29.033 0.151157L30.1157 0L28.6743 3.65127L28.9056 5.33079L28.0072 5.45843L27.7759 3.77556Z" fill="#29180E"/>
<path d="M36.7396 2.74434C36.8711 2.08046 37.2477 1.49076 37.7943 1.09308C38.3408 0.695405 39.017 0.519037 39.6877 0.599226C40.3584 0.679415 40.9742 1.01025 41.412 1.52563C41.8498 2.041 42.0775 2.70295 42.0494 3.37919L41.1007 3.16422C41.0141 2.83786 40.8357 2.54335 40.5866 2.31583C40.3376 2.08832 40.0285 1.93739 39.6962 1.88106C38.7274 1.65937 37.8424 2.1162 37.6547 2.9526C37.467 3.789 38.0603 4.58509 39.0325 4.80678C39.3564 4.89924 39.6999 4.89682 40.0225 4.79979C40.345 4.70276 40.6331 4.51519 40.8527 4.25926L41.8013 4.47424C41.5485 5.03216 41.1072 5.4827 40.5553 5.74635C40.0033 6.01 39.3761 6.06982 38.7844 5.91526C38.4387 5.84866 38.11 5.71261 37.8182 5.51532C37.5264 5.31802 37.2774 5.06357 37.0864 4.76728C36.8953 4.471 36.7661 4.13902 36.7065 3.79135C36.6469 3.44368 36.6581 3.08753 36.7396 2.74434V2.74434Z" fill="#29180E"/>
<path d="M44.3825 5.49539L45.8005 2.72083L46.5949 3.13735L45.1837 5.89847C44.939 6.37881 45.2138 6.97672 45.8373 7.29583C46.4608 7.61494 47.0978 7.48729 47.3425 7.00695L48.7537 4.24247L49.5683 4.66235L48.1503 7.43691C47.884 7.92249 47.4392 8.28493 46.9105 8.44728C46.3818 8.60962 45.8108 8.55909 45.3187 8.3064C44.8266 8.05371 44.4521 7.61877 44.2748 7.09393C44.0975 6.56908 44.1313 5.99565 44.3691 5.49539H44.3825Z" fill="#29180E"/>
<path d="M51.9584 10.7489L51.1203 10.0334L50.0879 11.2494L49.3973 10.6582L52.6992 6.77853L54.4725 8.29346C54.6569 8.43942 54.8099 8.62124 54.9224 8.82798C55.0349 9.03472 55.1045 9.26211 55.127 9.4965C55.1496 9.73088 55.1246 9.96741 55.0536 10.1919C54.9826 10.4163 54.867 10.6241 54.7139 10.8027C54.4894 11.0734 54.1872 11.2683 53.8483 11.3608C53.5095 11.4534 53.1504 11.4391 52.8199 11.3199L52.5953 13.3925L51.7539 12.6736L51.9584 10.7489ZM51.8444 9.1836L52.9104 10.0973C53.3261 10.45 53.7451 10.4802 53.9965 10.188C54.2479 9.89572 54.1507 9.48256 53.735 9.12986L52.669 8.2162L51.8444 9.1836Z" fill="#29180E"/>
<path d="M57.047 17.1546L56.162 17.8264L54.1508 15.1593L58.2002 12.0925L58.7466 12.8181L55.5788 15.2198L57.047 17.1546Z" fill="#29180E"/>
<path d="M58.6325 18.8778L59.028 19.7276C58.7297 19.8687 58.7129 20.4464 59.0079 21.0712C59.2661 21.6255 59.6549 21.9849 59.9197 21.8606C60.2549 21.6994 60.0572 20.9469 59.8728 20.3087C59.608 19.4051 59.7018 18.4646 60.5432 18.0783C61.3846 17.692 62.3333 18.2026 62.8093 19.2204C63.2853 20.2382 63.0406 21.3467 62.2327 21.7229L61.8338 20.873C62.102 20.7488 62.1154 20.2315 61.8338 19.6403C61.5858 19.1095 61.2371 18.7938 60.9891 18.908C60.6539 19.0659 60.8986 19.956 61.0226 20.3625C61.3042 21.3231 61.2673 22.2771 60.4125 22.6768C59.5577 23.0766 58.5319 22.5358 58.0425 21.4844C57.5229 20.3927 57.7844 19.2741 58.6325 18.8778Z" fill="#29180E"/>
<path d="M63.0205 28.0513C63.1594 28.0334 63.3004 28.0431 63.4356 28.0798C63.5707 28.1166 63.6973 28.1796 63.8082 28.2654C63.919 28.3512 64.0119 28.458 64.0815 28.5798C64.1511 28.7015 64.1961 28.8359 64.2138 28.975C64.2351 29.1136 64.2273 29.255 64.191 29.3904C64.1546 29.5257 64.0905 29.652 64.0027 29.7611C63.9181 29.8729 63.8122 29.9667 63.6912 30.0371C63.5701 30.1076 63.4363 30.1532 63.2975 30.1713C63.1587 30.1894 63.0177 30.1797 62.8827 30.1427C62.7476 30.1057 62.6213 30.0422 62.511 29.9559C62.3979 29.8719 62.3031 29.7657 62.2322 29.6439C62.1614 29.5221 62.1159 29.3871 62.0987 29.2471C62.0786 29.1078 62.0873 28.9659 62.1242 28.8301C62.1611 28.6943 62.2254 28.5676 62.3132 28.4577C62.3977 28.3457 62.5039 28.252 62.6254 28.1821C62.747 28.1123 62.8813 28.0678 63.0205 28.0513V28.0513Z" fill="#29180E"/>
<path d="M56.9866 33.1066C56.9866 19.7041 45.9547 8.80066 32.3985 8.80066C25.8798 8.80955 19.6308 11.4088 15.022 16.0283C10.4132 20.6478 7.82094 26.9105 7.81384 33.4425V78.373H47.8151C47.7883 78.9004 47.7782 79.4311 47.8151 79.9517C47.8912 81.4154 48.2621 82.8486 48.9056 84.1648C49.5491 85.481 50.4519 86.653 51.5595 87.6103L51.9986 88L52.4411 87.6103C53.5463 86.6532 54.4475 85.4825 55.0909 84.1683C55.7342 82.8542 56.1065 81.4235 56.1854 79.9618C56.2122 79.4326 56.2122 78.9023 56.1854 78.373H56.9866V33.1066ZM14.4679 58.5581C14.3988 58.341 14.3838 58.1104 14.4243 57.8862C14.425 57.8814 14.4268 57.8768 14.4295 57.8727C14.4322 57.8687 14.4357 57.8652 14.4399 57.8627C14.444 57.8601 14.4487 57.8585 14.4535 57.8579C14.4583 57.8574 14.4632 57.8579 14.4679 57.8594C14.6769 57.9619 14.8567 58.1155 14.9908 58.3061C15.0974 58.4899 15.1744 58.6894 15.2188 58.8973C15.2925 59.0989 15.3595 59.3004 15.4232 59.5053C15.4869 59.7102 15.5473 59.9117 15.6009 60.1234C15.6019 60.1273 15.602 60.1315 15.6014 60.1355C15.6007 60.1396 15.5993 60.1434 15.5971 60.1469C15.5949 60.1503 15.592 60.1533 15.5886 60.1556C15.5853 60.1579 15.5814 60.1595 15.5774 60.1603C15.5728 60.1627 15.5676 60.1639 15.5623 60.1639C15.5571 60.1639 15.5519 60.1627 15.5473 60.1603C15.4098 59.9924 15.2891 59.8244 15.1584 59.6464C15.0277 59.4684 14.9137 59.3105 14.7964 59.119C14.6573 58.9511 14.5463 58.7616 14.4679 58.5581V58.5581ZM16.335 64.7286C16.2646 64.9033 16.1942 65.0645 16.1171 65.2425C16.0676 65.4216 15.9858 65.5901 15.8758 65.7397C15.7374 65.8966 15.5589 66.0127 15.3595 66.0756L15.3093 66.0453C15.276 65.8403 15.2992 65.6301 15.3763 65.4374C15.4588 65.2714 15.5726 65.1231 15.7115 65.0007C15.8288 64.8596 15.9495 64.7185 16.0769 64.5808C16.2043 64.4431 16.3317 64.3087 16.4691 64.1777L16.5194 64.2079C16.4691 64.3793 16.3987 64.5506 16.335 64.7286V64.7286ZM18.5173 66.2267C18.4754 66.4715 18.3741 66.7022 18.2223 66.8985H18.1653C18.0347 66.6963 17.9532 66.4662 17.9273 66.2267C17.9222 65.9994 17.9527 65.7727 18.0178 65.5549C18.0513 65.3299 18.0915 65.1082 18.1351 64.8831C18.1787 64.6581 18.2256 64.4364 18.2826 64.2113H18.343C18.3798 64.4364 18.3999 64.6614 18.4301 64.8831C18.4603 65.1048 18.4737 65.3332 18.4871 65.5549C18.5318 65.7759 18.542 66.0026 18.5173 66.2267V66.2267ZM21.1252 66.2469L21.075 66.2738C20.8792 66.193 20.7097 66.0593 20.5855 65.8875C20.4862 65.7246 20.418 65.5446 20.3844 65.3567C20.3241 65.1787 20.2637 64.9973 20.2135 64.8126C20.1632 64.6278 20.1062 64.4431 20.066 64.255L20.1196 64.2281C20.2436 64.3759 20.3576 64.5304 20.4749 64.6782C20.5923 64.826 20.6995 64.9872 20.8101 65.1451C20.9397 65.2844 21.043 65.446 21.1152 65.6221C21.1724 65.8263 21.1735 66.0421 21.1185 66.2469H21.1252ZM19.9486 62.7132C19.3921 62.8653 18.8154 62.9299 18.239 62.9046C17.6721 62.8757 17.11 62.7845 16.563 62.6326C16.0501 62.4946 15.5543 62.2997 15.0847 62.0514L15.1919 61.9574C15.8157 61.853 16.4445 61.7824 17.0758 61.7458C17.4942 61.7166 17.9138 61.7098 18.3329 61.7256C18.6949 61.7458 19.0033 61.776 19.4156 61.8298C19.828 61.8835 20.3576 61.907 21.2057 61.9641L21.3297 62.0481C20.9122 62.3498 20.4446 62.575 19.9486 62.7132V62.7132ZM16.9317 57.7384C16.9336 57.4734 16.9967 57.2124 17.1161 56.9759C17.1223 56.9698 17.1308 56.9663 17.1395 56.9663C17.1483 56.9663 17.1567 56.9698 17.163 56.9759V56.9759C17.3238 57.1831 17.4381 57.4226 17.4982 57.678C17.5368 57.9224 17.5435 58.1708 17.5183 58.417C17.5183 58.6655 17.5183 58.9107 17.5183 59.1593C17.5183 59.4079 17.5183 59.6531 17.4815 59.905C17.481 59.909 17.4798 59.9129 17.4779 59.9164C17.476 59.9199 17.4734 59.923 17.4703 59.9255C17.4672 59.928 17.4636 59.9298 17.4598 59.9309C17.4559 59.932 17.4519 59.9324 17.4479 59.9319C17.4426 59.931 17.4376 59.9286 17.4334 59.9251C17.4293 59.9215 17.4262 59.9169 17.4245 59.9117C17.3507 59.6699 17.2904 59.4314 17.2267 59.1896C17.163 58.9477 17.1094 58.7092 17.0591 58.4674C16.9832 58.2318 16.9436 57.986 16.9418 57.7384H16.9317ZM19.4693 59.9185C19.4693 59.6632 19.4693 59.4112 19.4894 59.156C19.5095 58.9007 19.5196 58.6487 19.5397 58.3968C19.5309 58.1435 19.558 57.8901 19.6201 57.6444C19.6998 57.3875 19.8349 57.1513 20.0157 56.9524C20.0188 56.9489 20.0227 56.946 20.027 56.944C20.0314 56.9421 20.0361 56.9411 20.0408 56.9411C20.0456 56.9411 20.0503 56.9421 20.0546 56.944C20.059 56.946 20.0628 56.9489 20.066 56.9524V56.9524C20.1642 57.2034 20.2065 57.4728 20.19 57.7418C20.1569 57.9936 20.0904 58.2399 19.9922 58.4741C19.9252 58.7159 19.8481 58.9578 19.771 59.1996C19.6939 59.4415 19.6101 59.68 19.5162 59.9185C19.5151 59.9221 19.5133 59.9256 19.5107 59.9285C19.5082 59.9314 19.5051 59.9337 19.5016 59.9353C19.4981 59.9369 19.4943 59.9377 19.4905 59.9377C19.4866 59.9377 19.4828 59.9369 19.4793 59.9353C19.4775 59.9298 19.4775 59.9239 19.4793 59.9185H19.4693ZM22.4058 58.7764C22.3095 58.9612 22.1826 59.1281 22.0303 59.2702C21.8996 59.4314 21.7655 59.6061 21.6281 59.7471C21.4906 59.8882 21.3498 60.0562 21.2023 60.2073C21.196 60.212 21.1884 60.2145 21.1806 60.2145C21.1727 60.2145 21.1651 60.212 21.1588 60.2073C21.1564 60.2026 21.1552 60.1975 21.1552 60.1922C21.1552 60.187 21.1564 60.1818 21.1588 60.1771C21.2258 59.9756 21.3096 59.7841 21.3867 59.5893C21.4638 59.3944 21.5476 59.2063 21.6381 59.0182C21.6989 58.8197 21.7918 58.6325 21.913 58.464C22.0601 58.2923 22.248 58.1606 22.4594 58.0811C22.464 58.0795 22.4689 58.0788 22.4738 58.0792C22.4787 58.0795 22.4834 58.0808 22.4878 58.083C22.4921 58.0852 22.496 58.0882 22.4992 58.0919C22.5024 58.0956 22.5048 58.0999 22.5063 58.1046C22.5351 58.3348 22.504 58.5686 22.4158 58.7831L22.4058 58.7764ZM26.492 71.3896C25.9325 71.5568 25.3554 71.6583 24.7724 71.6919C24.1986 71.74 23.6211 71.7175 23.0527 71.6247H22.9857C22.9196 71.6124 22.861 71.5745 22.8227 71.5191C22.7844 71.4637 22.7695 71.3954 22.7812 71.3291C22.7878 71.3021 22.7979 71.2761 22.8114 71.2518C23.3656 70.2397 23.9377 69.2387 24.5277 68.2489L24.588 68.2791C24.2327 69.2062 23.8606 70.1266 23.4785 71.0402C23.9092 71.0083 24.3417 71.0083 24.7724 71.0402C25.3556 71.0722 25.9328 71.1737 26.492 71.3425V71.3896ZM32.07 58.5581C32.0025 58.3408 31.9876 58.1105 32.0265 57.8862C32.0272 57.8814 32.029 57.8768 32.0316 57.8727C32.0343 57.8687 32.0379 57.8652 32.042 57.8627C32.0462 57.8601 32.0508 57.8585 32.0557 57.8579C32.0605 57.8574 32.0654 57.8579 32.07 57.8594V57.8594C32.2774 57.9629 32.4559 58.1164 32.5896 58.3061C32.6978 58.4891 32.7749 58.6889 32.8176 58.8973C32.8913 59.0989 32.9584 59.3004 33.022 59.5053C33.0857 59.7102 33.1461 59.9117 33.1997 60.1234C33.2007 60.1273 33.2009 60.1315 33.2002 60.1355C33.1995 60.1396 33.1981 60.1434 33.1959 60.1469C33.1937 60.1503 33.1908 60.1533 33.1874 60.1556C33.1841 60.1579 33.1803 60.1595 33.1762 60.1603C33.1716 60.1627 33.1664 60.1639 33.1612 60.1639C33.1559 60.1639 33.1507 60.1627 33.1461 60.1603C33.012 59.9924 32.888 59.8244 32.7572 59.6464C32.6265 59.4684 32.5125 59.3105 32.3952 59.119C32.2621 58.9493 32.1559 58.7601 32.0801 58.5581H32.07ZM33.6254 64.7286C33.5584 64.9033 33.488 65.0645 33.4109 65.2425C33.3614 65.4216 33.2796 65.5901 33.1695 65.7397C33.0311 65.8966 32.8526 66.0127 32.6533 66.0756L32.603 66.0453C32.5698 65.8403 32.593 65.6301 32.6701 65.4374C32.7271 65.256 32.8913 65.1418 33.0053 65.0007C33.1193 64.8596 33.2466 64.7185 33.374 64.5808C33.5014 64.4431 33.6288 64.3087 33.7629 64.1777L33.8132 64.2079C33.7696 64.3793 33.6992 64.5506 33.6355 64.7286H33.6254ZM35.811 66.2267C35.7676 66.471 35.6665 66.7014 35.516 66.8985H35.4557C35.3274 66.6955 35.2471 66.4657 35.2211 66.2267C35.2159 65.9994 35.2465 65.7727 35.3116 65.5549C35.3451 65.3299 35.3853 65.1082 35.4289 64.8831C35.4725 64.6581 35.5194 64.4364 35.5764 64.2113H35.6334C35.6736 64.4364 35.6937 64.6614 35.7239 64.8831C35.754 65.1048 35.7675 65.3332 35.7809 65.5549C35.8289 65.7754 35.8425 66.0021 35.8211 66.2267H35.811ZM38.419 66.2469L38.3654 66.2738C38.1706 66.1913 38.0016 66.0578 37.876 65.8875C37.7792 65.7237 37.7122 65.544 37.6782 65.3567C37.6145 65.1787 37.5575 64.9973 37.5039 64.8126C37.4502 64.6278 37.4 64.4431 37.3597 64.255L37.41 64.2281C37.5374 64.3759 37.648 64.5304 37.7687 64.6782C37.8894 64.826 37.9933 64.9872 38.1039 65.1451C38.2323 65.2853 38.3355 65.4467 38.409 65.6221C38.4699 65.825 38.4768 66.0404 38.4291 66.2469H38.419ZM38.419 62.216C38.3114 62.278 38.1993 62.3319 38.0838 62.3773L37.7117 62.5116C37.5877 62.5553 37.4536 62.5822 37.3229 62.6191C37.0524 62.6847 36.7781 62.7329 36.5016 62.7636C36.2197 62.7899 35.9366 62.8011 35.6535 62.7972C35.0964 62.7861 34.5423 62.714 34.0009 62.5822C33.4866 62.4649 32.9881 62.2867 32.5159 62.0514L32.6198 61.9574C33.4042 61.8062 33.9606 61.7323 34.4434 61.682C34.8574 61.636 35.2738 61.6158 35.6904 61.6215C35.8747 61.6215 36.0524 61.6215 36.2435 61.6584C36.4345 61.6954 36.6323 61.7021 36.8502 61.7223C37.3061 61.7928 37.8223 61.8331 38.6402 61.9574L38.7509 62.0514L38.419 62.216ZM34.5473 57.7351C34.5508 57.4703 34.6138 57.2097 34.7316 56.9726C34.7379 56.9664 34.7463 56.963 34.7551 56.963C34.7639 56.963 34.7723 56.9664 34.7786 56.9726V56.9726C34.9406 57.179 35.0551 57.4187 35.1138 57.6746C35.1557 57.9187 35.1624 58.1676 35.1339 58.4136C35.1339 58.6622 35.1339 58.9074 35.1339 59.156C35.1339 59.4045 35.1138 59.6497 35.0937 59.9017C35.0937 59.9055 35.0929 59.9093 35.0914 59.9128C35.0898 59.9163 35.0875 59.9194 35.0847 59.922C35.0818 59.9245 35.0784 59.9264 35.0748 59.9275C35.0711 59.9287 35.0673 59.929 35.0635 59.9285C35.0575 59.9282 35.0518 59.9261 35.047 59.9225C35.0423 59.9189 35.0387 59.914 35.0367 59.9084C34.9629 59.6665 34.906 59.428 34.8389 59.1862C34.7719 58.9443 34.7216 58.7058 34.6713 58.464C34.599 58.2287 34.5595 57.9846 34.554 57.7384L34.5473 57.7351ZM37.0849 59.9151C37.0849 59.6598 37.0849 59.4079 37.105 59.1526C37.1251 58.8973 37.1351 58.6454 37.1552 58.3935C37.1481 58.1402 37.1752 57.8871 37.2357 57.641C37.3154 57.3834 37.4517 57.1469 37.6346 56.9491C37.6374 56.9456 37.641 56.9427 37.6451 56.9408C37.6491 56.9388 37.6536 56.9378 37.6581 56.9378C37.6626 56.9378 37.667 56.9388 37.6711 56.9408C37.6751 56.9427 37.6787 56.9456 37.6815 56.9491C37.6815 56.9491 37.6815 56.9491 37.6815 56.9491C37.7797 57.2 37.8221 57.4694 37.8056 57.7384C37.7736 57.9901 37.7082 58.2364 37.6111 58.4707C37.5407 58.7126 37.467 58.9544 37.3865 59.1963C37.3061 59.4381 37.2256 59.6766 37.1318 59.9151C37.1307 59.9188 37.1288 59.9222 37.1263 59.9251C37.1238 59.928 37.1207 59.9303 37.1172 59.9319C37.1137 59.9335 37.1099 59.9343 37.106 59.9343C37.1022 59.9343 37.0984 59.9335 37.0949 59.9319C37.0926 59.9278 37.0915 59.9232 37.0916 59.9185L37.0849 59.9151ZM40.0247 58.773C39.9261 58.9572 39.7981 59.124 39.6459 59.2668C39.5185 59.428 39.3844 59.6027 39.2436 59.7438C39.1028 59.8849 38.9688 60.0528 38.8179 60.204C38.8118 60.2092 38.8041 60.212 38.7961 60.212C38.7881 60.212 38.7804 60.2092 38.7743 60.204C38.772 60.1993 38.7708 60.1941 38.7708 60.1889C38.7708 60.1836 38.772 60.1784 38.7743 60.1737C38.8447 59.9722 38.9252 59.7807 39.0023 59.5859C39.0794 59.3911 39.1665 59.203 39.2537 59.0149C39.3145 58.8163 39.4073 58.6291 39.5286 58.4606C39.6775 58.288 39.8678 58.1562 40.0817 58.0777C40.0863 58.0761 40.0912 58.0755 40.0961 58.0758C40.1009 58.0762 40.1057 58.0775 40.11 58.0796C40.1144 58.0818 40.1183 58.0849 40.1215 58.0886C40.1247 58.0923 40.1271 58.0966 40.1286 58.1012C40.1559 58.3331 40.1224 58.5681 40.0314 58.7831L40.0247 58.773ZM55.4949 79.935C55.4739 80.3621 55.4246 80.7874 55.3474 81.208C55.2021 82.0063 54.9624 82.7843 54.6334 83.5258C54.6133 83.5728 54.5864 83.6232 54.563 83.6736C54.3015 84.248 53.9908 84.7987 53.6344 85.3195C53.412 85.6334 53.1713 85.934 52.9137 86.2197C52.6282 86.5369 52.3237 86.8364 52.0019 87.1166C51.7505 86.8915 51.5226 86.6698 51.3114 86.4448C50.4957 85.5895 49.8314 84.6013 49.347 83.5224C49.2398 83.2772 49.1459 83.032 49.0587 82.7868C48.7312 81.8679 48.5392 80.906 48.4889 79.9316C48.4889 79.9114 48.4889 79.8913 48.4889 79.8711C48.4889 79.6293 48.4889 79.3874 48.4889 79.1456C48.4889 78.9037 48.4889 78.6384 48.5157 78.3864C48.5536 77.7026 48.6331 77.0217 48.7537 76.3475C48.9964 75.1276 49.3326 73.9282 49.7593 72.7601L50.3862 70.963L50.698 70.0661L50.9762 69.1692C51.3297 67.9988 51.5655 66.7959 51.6801 65.5784C51.7371 64.9805 51.7505 64.3826 51.7505 63.7847V61.9742V58.3834L51.7908 44.0235L51.8176 36.8452C51.8176 35.6494 51.8377 34.4469 51.8176 33.2578C51.7953 32.0727 51.6651 30.8922 51.4287 29.7308C50.952 27.3984 50.0424 25.1765 48.747 23.1807C47.4532 21.184 45.8072 19.4402 43.8897 18.0346C41.9743 16.6286 39.8145 15.592 37.5206 14.9779C35.2267 14.3693 32.8422 14.1793 30.4811 14.417C26.9218 14.7825 23.5334 16.1301 20.6928 18.31C17.8521 20.49 15.6706 23.4167 14.3908 26.7648C13.5479 28.9869 13.1152 31.3441 13.1136 33.7213V33.7415C13.1163 38.1326 14.8596 42.3428 17.9601 45.4459C21.0606 48.549 25.2643 50.2908 29.6464 50.2881C34.0285 50.2854 38.2301 48.5385 41.3268 45.4316C44.4236 42.3248 46.1618 38.1124 46.1591 33.7213V33.7012C46.1003 30.0925 44.6276 26.6517 42.0592 24.1216C39.4907 21.5914 36.0323 20.1747 32.4305 20.1774C28.8288 20.18 25.3725 21.6018 22.8077 24.1357C20.2429 26.6697 18.7753 30.1126 18.7218 33.7213V33.7415C18.7235 36.6481 19.8771 39.4351 21.9288 41.4898C23.9805 43.5445 26.7625 44.6987 29.6632 44.6987C31.1018 44.7 32.5266 44.4169 33.856 43.8656C35.1853 43.3144 36.393 42.5057 37.41 41.486C38.427 40.4663 39.2332 39.2556 39.7826 37.9232C40.3319 36.5909 40.6135 35.163 40.6113 33.7213V33.6978C40.5651 31.5595 39.6841 29.5245 38.1575 28.0296C36.6308 26.5348 34.5802 25.6992 32.4457 25.7023C30.3112 25.7054 28.263 26.5469 26.7407 28.0461C25.2183 29.5453 24.3432 31.5829 24.3031 33.7213V33.7213C24.3031 35.1467 24.8682 36.5138 25.874 37.5217C26.8798 38.5296 28.2441 39.0958 29.6665 39.0958C31.089 39.0958 32.4532 38.5296 33.4591 37.5217C34.4649 36.5138 35.03 35.1467 35.03 33.7213C35.0261 33.3552 34.9453 32.9939 34.7929 32.6611C34.6404 32.3283 34.4196 32.0315 34.145 31.7899C33.8683 31.5444 33.541 31.3632 33.1863 31.2592C33.0106 31.2067 32.8296 31.174 32.6466 31.1618C32.4702 31.1427 32.2918 31.1564 32.1203 31.2021C31.7756 31.318 31.4856 31.5572 31.3057 31.8739C31.1519 32.2344 31.0776 32.624 31.0878 33.0159C31.0756 33.1723 31.0298 33.3241 30.9534 33.4609C30.877 33.5978 30.7719 33.7164 30.6454 33.8087C30.2333 34.0857 29.8045 34.337 29.3615 34.5611C29.0721 34.3863 28.8456 34.1241 28.7145 33.812C28.6064 33.5518 28.5572 33.2707 28.5704 32.9891C28.5797 32.7324 28.6488 32.4814 28.7722 32.2563C28.8956 32.0311 29.0698 31.838 29.281 31.6925C29.7356 31.4471 30.2156 31.2522 30.7124 31.1114C31.1327 30.9363 31.5712 30.809 32.0197 30.7318C32.4491 30.6635 32.8882 30.6907 33.3059 30.8114C33.7235 30.9322 34.1096 31.1435 34.4367 31.4305C34.763 31.7144 35.0247 32.0653 35.204 32.4594C35.3833 32.8534 35.476 33.2815 35.4758 33.7146V33.9397C35.4246 35.4657 34.7761 36.9102 33.6705 37.9609C32.5649 39.0115 31.091 39.584 29.5676 39.5544C28.0441 39.5248 26.5935 38.8956 25.5293 37.8029C24.4651 36.7101 23.8729 35.2415 23.8807 33.7146V33.4929C23.9101 31.2114 24.8427 29.035 26.4734 27.4425C28.1041 25.85 30.2994 24.9719 32.5762 25.0013C34.8531 25.0307 37.025 25.9652 38.6142 27.5993C40.2035 29.2333 41.0798 31.4331 41.0504 33.7146V33.9262C40.9796 36.9196 39.736 39.7648 37.5885 41.8468C35.441 43.9288 32.5621 45.0804 29.5742 45.0526C26.5862 45.0248 23.7292 43.8199 21.6207 41.6983C19.5121 39.5767 18.3215 36.7088 18.3061 33.7146V33.4963C18.335 29.7279 19.8566 26.1254 22.5362 23.4812C25.2159 20.837 28.834 19.3678 32.5946 19.3967C36.3553 19.4257 39.9505 20.9504 42.5892 23.6356C45.228 26.3207 46.6942 29.9462 46.6653 33.7146V33.9598C46.6337 38.4681 44.8162 42.7791 41.6126 45.9446C38.409 49.11 34.0818 50.8706 29.5827 50.839C25.0837 50.8074 20.7815 48.9861 17.6225 45.776C14.4636 42.5658 12.7066 38.2296 12.7382 33.7213V33.5299C12.7672 31.1715 13.2121 28.8369 14.0522 26.6338C15.3612 23.2344 17.5823 20.2636 20.4702 18.0496C23.3582 15.8356 26.8007 14.4645 30.4174 14.0878C32.8203 13.8495 35.2464 14.044 37.581 14.6622C39.9133 15.2883 42.1093 16.343 44.0573 17.7726C46.5053 19.5553 48.5102 21.8794 49.9166 24.5644C51.3229 27.2493 52.0927 30.223 52.1662 33.2544C52.193 34.4603 52.1662 35.6494 52.1897 36.8486L52.2131 44.0269L52.2567 58.3867V61.9775V63.7746C52.25 64.3733 52.2735 64.972 52.3271 65.5684C52.4401 66.786 52.676 67.9891 53.031 69.1592L53.3093 70.056L53.621 70.9529L54.2445 72.75C54.6727 73.9176 55.009 75.1171 55.2502 76.3374C55.4168 77.2632 55.5042 78.2015 55.5116 79.1422C55.515 79.4009 55.515 79.6629 55.5016 79.9249L55.4949 79.935Z" fill="#29180E"/>
<path d="M29.5995 32.4953C29.4933 32.6595 29.421 32.8434 29.387 33.0362C29.3531 33.2289 29.3581 33.4265 29.4018 33.6172C29.4956 33.4426 29.5593 33.2813 29.6364 33.1201C29.71 32.968 29.7917 32.82 29.8811 32.6767C29.9731 32.5374 30.0751 32.4049 30.1862 32.2803C30.3057 32.1481 30.4346 32.0247 30.5717 31.9108C30.3742 31.9134 30.1818 31.9741 30.0186 32.0855C29.8519 32.1913 29.7092 32.3309 29.5995 32.4953V32.4953Z" fill="#29180E"/>
</g>
<defs>
<clipPath id="clip0">
<rect width="64.3077" height="88" fill="white"/>
</clipPath>
</defs>
</svg>
