<svg width="48" height="48" viewBox="0 0 48 48" fill="none" xmlns="http://www.w3.org/2000/svg">
<path fill-rule="evenodd" clip-rule="evenodd" d="M19 23.2546C22.1665 23.2546 24.7334 20.8043 24.7334 17.7818C24.7334 14.7593 22.1665 12.3091 19 12.3091C15.8336 12.3091 13.2667 14.7593 13.2667 17.7818C13.2667 20.8043 15.8336 23.2546 19 23.2546ZM19 24.5273C22.9028 24.5273 26.0667 21.5072 26.0667 17.7818C26.0667 14.0564 22.9028 11.0364 19 11.0364C15.0972 11.0364 11.9334 14.0564 11.9334 17.7818C11.9334 21.5072 15.0972 24.5273 19 24.5273Z" fill="#29180E"/>
<path fill-rule="evenodd" clip-rule="evenodd" d="M28.1334 34.9454C30.4898 34.9454 32.4 33.122 32.4 30.8727C32.4 28.6234 30.4898 26.7999 28.1334 26.7999C25.7769 26.7999 23.8667 28.6234 23.8667 30.8727C23.8667 33.122 25.7769 34.9454 28.1334 34.9454ZM28.1334 36.2181C31.2262 36.2181 33.7334 33.8249 33.7334 30.8727C33.7334 27.9205 31.2262 25.5272 28.1334 25.5272C25.0406 25.5272 22.5334 27.9205 22.5334 30.8727C22.5334 33.8249 25.0406 36.2181 28.1334 36.2181Z" fill="#29180E"/>
<path fill-rule="evenodd" clip-rule="evenodd" d="M31.5334 19.4182C33.0798 19.4182 34.3334 18.2216 34.3334 16.7455C34.3334 15.2694 33.0798 14.0728 31.5334 14.0728C29.987 14.0728 28.7334 15.2694 28.7334 16.7455C28.7334 18.2216 29.987 19.4182 31.5334 19.4182ZM31.5334 20.691C33.8161 20.691 35.6667 18.9245 35.6667 16.7455C35.6667 14.5665 33.8161 12.8 31.5334 12.8C29.2506 12.8 27.4 14.5665 27.4 16.7455C27.4 18.9245 29.2506 20.691 31.5334 20.691Z" fill="#29180E"/>
<path d="M21.2 31C21.2 32.3355 20.0658 33.4182 18.6667 33.4182C17.2676 33.4182 16.1333 32.3355 16.1333 31C16.1333 29.6644 17.2676 28.5818 18.6667 28.5818C20.0658 28.5818 21.2 29.6644 21.2 31Z" fill="#29180E"/>
<path d="M36.6667 24.1272C36.6667 24.9004 36.01 25.5272 35.2 25.5272C34.39 25.5272 33.7333 24.9004 33.7333 24.1272C33.7333 23.354 34.39 22.7272 35.2 22.7272C36.01 22.7272 36.6667 23.354 36.6667 24.1272Z" fill="#29180E"/>
<path d="M14.2667 26.4182C14.2667 27.1914 13.61 27.8182 12.8 27.8182C11.99 27.8182 11.3333 27.1914 11.3333 26.4182C11.3333 25.645 11.99 25.0182 12.8 25.0182C13.61 25.0182 14.2667 25.645 14.2667 26.4182Z" fill="#29180E"/>
<rect x="0.4" y="0.4" width="47.2" height="47.2" rx="23.6" stroke="#29180E" stroke-width="0.8"/>
</svg>
