<svg width="48" height="48" viewBox="0 0 48 48" fill="none" xmlns="http://www.w3.org/2000/svg">
<path fill-rule="evenodd" clip-rule="evenodd" d="M31.0418 34.6811C31.0306 34.675 31.0171 34.675 31.0059 34.6811C30.9948 34.6872 30.9813 34.6872 30.9701 34.6811L27.2727 32.6612C26.6751 32.3347 25.9525 32.3347 25.3549 32.6612L22.5985 34.1671C22.0009 34.4935 21.2783 34.4935 20.6807 34.1671L17.4737 32.415C16.8319 32.0644 16.4326 31.3913 16.4326 30.6599V27.8877C16.4326 27.1563 16.0334 26.4832 15.3915 26.1325L12.7745 24.7028C12.1326 24.3521 11.7333 23.6791 11.7333 22.9477V19.631C11.7333 18.8996 12.1326 18.2266 12.7745 17.8759L15.9815 16.1239C16.579 15.7974 17.3016 15.7974 17.8992 16.1239L20.6861 17.6464C21.2837 17.9729 22.0063 17.9729 22.6039 17.6464L25.3908 16.1239C25.9883 15.7974 26.7109 15.7974 27.3085 16.1239L30.5155 17.8759C31.1574 18.2266 31.5566 18.8996 31.5566 19.631V22.3974C31.5566 23.1288 31.9559 23.8019 32.5978 24.1525L35.2255 25.5881C35.8674 25.9388 36.2667 26.6119 36.2667 27.3433V30.6599C36.2667 31.3913 35.8674 32.0644 35.2255 32.415L31.0776 34.6811C31.0664 34.6872 31.0529 34.6872 31.0418 34.6811ZM29.4553 24.1236C30.0972 23.7729 30.4964 23.0999 30.4964 22.3684V20.2103C30.4964 19.4788 30.0972 18.8058 29.4553 18.4551L27.3085 17.2823C26.7109 16.9558 25.9883 16.9558 25.3908 17.2823L23.244 18.4551C22.6021 18.8058 22.2028 19.4788 22.2028 20.2103V22.3684C22.2028 23.0999 22.6021 23.7729 23.244 24.1236L25.3908 25.2964C25.9883 25.6229 26.7109 25.6229 27.3085 25.2964L29.4553 24.1236ZM20.046 18.4551C20.6879 18.8058 21.0871 19.4788 21.0871 20.2103V22.3684C21.0871 23.0999 20.6879 23.7729 20.046 24.1236L17.8992 25.2964C17.3016 25.6229 16.579 25.6229 15.9815 25.2964L13.8347 24.1236C13.1928 23.7729 12.7935 23.0999 12.7935 22.3684V20.2103C12.7935 19.4788 13.1928 18.8058 13.8347 18.4551L15.9815 17.2823C16.579 16.9558 17.3016 16.9558 17.8992 17.2823L20.046 18.4551ZM18.5339 26.1673C17.8921 26.518 17.4928 27.1911 17.4928 27.9225V30.0807C17.4928 30.8121 17.8921 31.4852 18.5339 31.8358L20.6807 33.0087C21.2783 33.3351 22.0009 33.3351 22.5985 33.0087L24.7399 31.8388C25.3818 31.4881 25.781 30.815 25.781 30.0836V27.9195C25.781 27.1881 25.3818 26.5151 24.7399 26.1644L22.5985 24.9945C22.0009 24.668 21.2783 24.668 20.6807 24.9945L18.5339 26.1673ZM26.9129 30.0807C26.9129 30.8121 27.3121 31.4852 27.954 31.8358L30.065 32.9891C30.6625 33.3155 31.3852 33.3155 31.9827 32.9891L34.0937 31.8358C34.7356 31.4852 35.1348 30.8121 35.1348 30.0807V27.9225C35.1348 27.1911 34.7356 26.518 34.0937 26.1673L31.9827 25.0141C31.3852 24.6876 30.6625 24.6876 30.065 25.0141L27.954 26.1673C27.3121 26.518 26.9129 27.1911 26.9129 27.9225V30.0807Z" fill="#29180E"/>
<path fill-rule="evenodd" clip-rule="evenodd" d="M11.7333 26.5457C11.9542 26.5457 12.1333 26.7248 12.1333 26.9457V30.2184C12.1333 30.4393 11.9542 30.6184 11.7333 30.6184C11.5124 30.6184 11.3333 30.4393 11.3333 30.2184V26.9457C11.3333 26.7248 11.5124 26.5457 11.7333 26.5457ZM36.2666 19.673C36.4875 19.673 36.6666 19.852 36.6666 20.073V23.3457C36.6666 23.5666 36.4875 23.7457 36.2666 23.7457C36.0457 23.7457 35.8666 23.5666 35.8666 23.3457V20.073C35.8666 19.852 36.0457 19.673 36.2666 19.673ZM32.2666 13.0548C32.4875 13.0548 32.6666 13.2339 32.6666 13.4548V16.7275C32.6666 16.9484 32.4875 17.1275 32.2666 17.1275C32.0457 17.1275 31.8666 16.9484 31.8666 16.7275V13.4548C31.8666 13.2339 32.0457 13.0548 32.2666 13.0548Z" fill="#29180E"/>
<rect x="0.4" y="0.4" width="47.2" height="47.2" rx="23.6" stroke="#29180E" stroke-width="0.8"/>
</svg>
