<svg width="48" height="48" viewBox="0 0 48 48" fill="none" xmlns="http://www.w3.org/2000/svg">
<path fill-rule="evenodd" clip-rule="evenodd" d="M28.1333 10.6829H20.4V11.1382C21.5782 11.1382 22.5333 11.9536 22.5333 12.9593V18.9326C22.5333 19.9029 21.7478 20.6721 20.7834 20.9692C16.982 22.1404 14.2667 25.2476 14.2667 28.8943C14.2667 33.5461 18.6841 37.3171 24.1333 37.3171C29.5826 37.3171 34 33.5461 34 28.8943C34 25.3147 31.3839 22.255 27.6919 21.0358C26.7546 20.7263 26 19.9666 26 19.0167V12.9594C26 11.9536 26.9551 11.1382 28.1333 11.1382V10.6829ZM20.4 10C19.9582 10 19.6 10.3058 19.6 10.6829V11.1382C19.6 11.5154 19.9582 11.8211 20.4 11.8211C21.1364 11.8211 21.7333 12.3307 21.7333 12.9593V18.9326C21.7333 19.569 21.213 20.1108 20.5118 20.3269C16.4034 21.5927 13.4667 24.9507 13.4667 28.8943C13.4667 33.9232 18.2423 38 24.1333 38C30.0244 38 34.8 33.9232 34.8 28.8943C34.8 25.0233 31.9704 21.7165 27.9806 20.3989C27.2997 20.174 26.8 19.6399 26.8 19.0167V12.9594C26.8 12.3307 27.397 11.8211 28.1333 11.8211C28.5752 11.8211 28.9333 11.5154 28.9333 11.1382V10.6829C28.9333 10.3058 28.5752 10 28.1333 10H20.4Z" fill="#29180E"/>
<rect x="19.6" y="10" width="9.33333" height="1.82114" rx="0.910569" fill="#29180E"/>
<path d="M34.294 29.9076C34.3116 29.8709 34.3285 29.8345 34.3449 29.7983C33.813 34.1366 29.4973 37.6001 24.1333 37.6001C18.4448 37.6001 13.9353 33.7049 13.8675 29.0019C14.7708 27.4896 15.8422 26.8502 16.9987 26.7023C18.2113 26.5472 19.583 26.923 21.0555 27.5712C22.2076 28.0783 23.3797 28.7321 24.5492 29.3844C24.8725 29.5647 25.1956 29.7449 25.518 29.9219C26.9869 30.7281 28.4496 31.4717 29.7785 31.7721C31.1162 32.0745 32.1131 31.9256 32.8563 31.514C33.5935 31.1057 34.0243 30.47 34.294 29.9076Z" stroke="#29180E" stroke-width="0.8"/>
<rect x="0.4" y="0.4" width="47.2" height="47.2" rx="23.6" stroke="#29180E" stroke-width="0.8"/>
</svg>
